<svg width="20" height="20" viewBox="0 0 20 20" fill="none" xmlns="http://www.w3.org/2000/svg">
<path d="M6.48106 14.716L5.59177 13.4523L3.71403 13.7477L6.18354 9.91174H1.36806V20H9.57324V9.91174L6.48106 14.716Z" fill="#CBCFD4"/>
<path d="M19.9862 5.09754H14.5375C14.8561 4.95372 15.1406 4.8035 15.3926 4.64403C16.3616 4.03602 16.8761 3.2657 16.8745 2.50107C16.8745 1.87384 16.5355 0.975367 16.0429 0.600883C15.5495 0.222127 14.8951 0 14.1969 0C13.4507 0 12.7573 0.224263 12.1631 0.573117C11.2697 1.09711 10.5706 2.23195 10.0723 3.09768C10.0471 3.14111 10.0219 3.18311 9.99756 3.22512C9.81548 2.89121 9.6025 2.2227 9.36108 1.91798C8.93838 1.38972 8.43034 0.922683 7.83368 0.573117C7.2411 0.224263 6.54853 0 5.80312 0C5.06015 0.00213584 4.37978 0.274811 3.87092 0.695572C3.36449 1.11206 3.01008 2.04969 3.00683 2.71964C3.00358 3.11049 3.13364 3.51986 3.4027 3.89221C3.74085 4.35854 4.27654 4.76506 5.01626 5.09754H0L0.0113803 9.10935H9.43099V5.09754H10.5788V9.10935H20L19.9862 5.09754ZM5.34141 3.84309C4.96342 3.63377 4.73094 3.42375 4.59437 3.23508C4.46188 3.04784 4.41554 2.71892 4.41554 2.55731C4.41229 2.28748 4.56592 1.81404 4.83905 1.59191C5.10567 1.36907 5.46822 1.23167 5.79337 1.23167H5.80312C6.22175 1.23452 6.63632 1.35697 7.05414 1.59832C7.67599 1.95785 8.26207 2.93536 8.66932 3.65157C8.8823 4.01609 9.04487 4.39698 9.15461 4.76933C7.26792 4.59846 6.04861 4.23395 5.34141 3.84309ZM11.79 2.97095C12.1297 2.5445 12.5305 1.84109 12.9459 1.59832C13.3588 1.35697 13.7782 1.23452 14.1969 1.23167H14.2009C14.5497 1.23167 14.8854 1.35127 15.1138 1.52855C15.343 1.70867 15.4658 2.0383 15.4658 2.2704C15.4609 2.5445 15.2991 3.17528 14.5684 3.64303C13.875 4.08586 12.6711 4.53937 10.8202 4.8569C10.995 4.21401 11.3372 3.53339 11.79 2.97095Z" fill="#CBCFD4"/>
<path d="M16.2957 13.7313L14.4188 13.4523L13.5327 14.7309L10.4804 9.97653V20H18.6441V9.91174H13.8286L16.2957 13.7313Z" fill="#CBCFD4"/>
</svg>
