<svg width="20" height="20" viewBox="0 0 20 20" fill="none" xmlns="http://www.w3.org/2000/svg">
<path d="M10 0C4.48601 0 0 4.48601 0 10C0 15.514 4.48601 20 9.99991 20C15.5139 20 19.9999 15.514 19.9999 10C19.9999 4.48601 15.514 0 10 0ZM9.19567 0.778565H10.7469V2.32983H9.19567V0.778565ZM16.9838 10C16.9838 13.8509 13.8509 16.9838 10 16.9838C6.14915 16.9838 3.01627 13.8509 3.01627 10C3.01627 6.14915 6.14923 3.01619 10 3.01619C13.8509 3.01619 16.9838 6.14915 16.9838 10ZM4.02796 2.93104L5.12488 4.02796L4.02796 5.12488L2.93104 4.02796L4.02796 2.93104ZM2.30114 10.7756H0.749866V9.22437H2.30114V10.7756ZM4.02796 17.069L2.93104 15.9721L4.02796 14.8752L5.12488 15.9721L4.02796 17.069ZM10.7469 19.2214H9.19567V17.6702H10.7469V19.2214ZM15.972 17.069L14.8751 15.9721L15.972 14.8752L17.069 15.9721L15.972 17.069ZM15.972 5.12488L14.8751 4.02796L15.972 2.93104L17.069 4.02796L15.972 5.12488ZM17.6415 10.7756V9.22437H19.1927V10.7756H17.6415Z" fill="#CBCFD4"/>
<path d="M4.30899 9.99993C4.30899 13.138 6.86195 15.691 9.99999 15.691C13.138 15.691 15.6911 13.138 15.6911 9.99993C15.6911 6.86188 13.138 4.30884 9.99999 4.30884C6.86195 4.30884 4.30899 6.86188 4.30899 9.99993ZM12.7213 9.51748C12.9897 9.95408 13.0762 10.3424 13.0762 10.8037C13.0762 11.9439 12.2717 12.5569 11.3569 12.5569C10.733 12.5569 10.3776 12.2621 10.1838 12.0168L10.5146 13.1886H9.47489L9.79833 12.0437C9.59847 12.2816 9.24858 12.5799 8.64737 12.5799C7.73264 12.5799 6.92366 11.9555 6.92366 10.8152C6.92366 10.3538 7.00803 9.95399 7.2764 9.5174C7.69489 8.83648 10.006 6.87653 10.006 6.87653C10.006 6.87653 12.3028 8.83656 12.7213 9.51748Z" fill="#CBCFD4"/>
</svg>
