<svg xmlns="http://www.w3.org/2000/svg" width="40" height="40" fill="none" style=""><rect id="backgroundrect" width="100%" height="100%" x="0" y="0" fill="none" stroke="none"/>




<defs>
<linearGradient id="paint0_linear" x1="-0.21052615344524384" y1="0.4999981224536896" x2="1.210526943206787" y2="0.4999981224536896">
<stop stop-color="#F27A54"/>
<stop offset="1" stop-color="#A154F2"/>
</linearGradient>
<linearGradient id="paint1_linear" x1="-0.21052740514278412" y1="0.5" x2="1.210524320602417" y2="0.5">
<stop stop-color="#F27A54"/>
<stop offset="1" stop-color="#A154F2"/>
</linearGradient>
</defs>
<g class="currentLayer" style=""><title>Layer 1</title><path d="M24.25897641563415,11.902729067993164 H4.1583664156341555 C2.478886415634158,11.902729067993164 1.1049764156341555,13.317829067993166 1.1049764156341555,15.047529067993167 V35.750129067993164 C1.1049764156341555,37.479829067993165 2.478886415634158,38.895029067993164 4.1583664156341555,38.895029067993164 H24.25897641563415 C25.937976415634154,38.895029067993164 27.312076415634152,37.479829067993165 27.312076415634152,35.750129067993164 V15.047529067993167 C27.312176415634156,13.317829067993166 25.937976415634154,11.902729067993164 24.25897641563415,11.902729067993164 zM7.261366415634157,35.49472906799316 C5.6843364156341565,35.49472906799316 4.406596415634155,34.17832906799316 4.406596415634155,32.554529067993165 C4.406596415634155,30.930829067993166 5.684446415634156,29.614329067993168 7.261366415634157,29.614329067993168 C8.837716415634155,29.614329067993168 10.115786415634155,30.930829067993166 10.115786415634155,32.554529067993165 C10.115676415634155,34.17832906799316 8.837716415634155,35.49472906799316 7.261366415634157,35.49472906799316 zM7.261366415634157,21.183329067993164 C5.684556415634155,21.183329067993164 4.406596415634155,19.867029067993165 4.406596415634155,18.243229067993163 C4.406596415634155,16.619329067993164 5.684676415634158,15.302929067993162 7.261366415634157,15.302929067993162 C8.837716415634155,15.302929067993162 10.116016415634157,16.619429067993167 10.116016415634157,18.243229067993163 C10.116016415634157,19.867029067993165 8.837716415634155,21.183329067993164 7.261366415634157,21.183329067993164 zM14.208676415634159,27.96512906799316 C12.63207641563416,27.96512906799316 11.353876415634154,26.648529067993167 11.353876415634154,25.024929067993163 C11.353876415634154,23.401029067993164 12.632176415634156,22.084729067993166 14.208676415634159,22.084729067993166 C15.785176415634155,22.084729067993166 17.063376415634153,23.401129067993168 17.063376415634153,25.024929067993163 C17.063376415634153,26.648529067993167 15.785176415634155,27.96512906799316 14.208676415634159,27.96512906799316 zM21.155976415634157,35.49472906799316 C19.579476415634154,35.49472906799316 18.301376415634152,34.17832906799316 18.301376415634152,32.554529067993165 C18.301376415634152,30.930829067993166 19.579476415634154,29.614229067993165 21.155976415634157,29.614229067993165 C22.732576415634156,29.614229067993165 24.010776415634155,30.930929067993162 24.010776415634155,32.554529067993165 C24.010876415634158,34.17832906799316 22.732576415634156,35.49472906799316 21.155976415634157,35.49472906799316 zM21.155976415634157,21.183329067993164 C19.579476415634154,21.183329067993164 18.301376415634152,19.867029067993165 18.301376415634152,18.243229067993163 C18.301376415634152,16.619329067993164 19.579476415634154,15.302929067993162 21.155976415634157,15.302929067993162 C22.732776415634156,15.302929067993162 24.010776415634155,16.619429067993167 24.010776415634155,18.243229067993163 C24.010876415634158,19.867029067993165 22.732776415634156,21.183329067993164 21.155976415634157,21.183329067993164 z" fill="#cbcfd4" id="svg_2" class="" fill-opacity="1"/><path d="M36.7043 0.000115574L15.0092 0C13.1968 0 11.7138 1.52742 11.7138 3.39419V8.46871C11.7138 8.46871 11.656 9.73433 13.0682 9.73433C15.6956 9.73433 24.0627 9.73433 24.0627 9.73433C27.0692 9.73433 29.5153 12.2537 29.5153 15.3504V27.6616C29.5153 29.1334 30.7996 29.1334 31.4706 29.1334C34.0615 29.1334 36.7044 29.1334 36.7044 29.1334C38.517 29.1334 40 27.606 40 25.7391V3.39419C39.9999 1.52742 38.5169 -8.3819e-09 36.7043 0.000115574ZM33.3552 10.0167C31.6537 10.0167 30.2742 8.59596 30.2742 6.84328C30.2742 5.09082 31.6537 3.67008 33.3552 3.66997C35.0572 3.66997 36.4367 5.09082 36.4367 6.84328C36.4365 8.59596 35.0572 10.0167 33.3552 10.0167Z" fill="#930000" id="svg_3"/><path d="M36.7043 0.000115574L15.0092 0C13.1968 0 11.7138 1.52742 11.7138 3.39419V8.46871C11.7138 8.46871 11.656 9.73433 13.0682 9.73433C15.6956 9.73433 24.0627 9.73433 24.0627 9.73433C27.0692 9.73433 29.5153 12.2537 29.5153 15.3504V27.6616C29.5153 29.1334 30.7996 29.1334 31.4706 29.1334C34.0615 29.1334 36.7044 29.1334 36.7044 29.1334C38.517 29.1334 40 27.606 40 25.7391V3.39419C39.9999 1.52742 38.5169 -8.3819e-09 36.7043 0.000115574ZM33.3552 10.0167C31.6537 10.0167 30.2742 8.59596 30.2742 6.84328C30.2742 5.09082 31.6537 3.67008 33.3552 3.66997C35.0572 3.66997 36.4367 5.09082 36.4367 6.84328C36.4365 8.59596 35.0572 10.0167 33.3552 10.0167Z" fill="#cbcfd4" id="svg_4" class="" stroke-opacity="1" stroke="#cbcfd4" fill-opacity="1"/></g></svg>