<svg width="20" height="20" viewBox="0 0 20 20" fill="none" xmlns="http://www.w3.org/2000/svg">
<path d="M16.7885 5.52347C16.8685 5.60609 16.9752 5.65043 17.0827 5.65043C17.3127 5.65043 17.4993 5.45564 17.4993 5.21558V1.30209C17.4993 1.06208 17.3135 0.867243 17.0827 0.867243H13.3328C13.1645 0.867243 13.012 0.97247 12.9478 1.13682C12.8828 1.29858 12.9186 1.4847 13.0378 1.6099L16.7885 5.52347ZM2.4998 10.104V20H8.33296V13.9123H11.6662V20H17.4993V10.104L9.99956 2.27698L2.4998 10.104ZM19.8859 10.1397L19.8776 10.1258L10.2945 0.124582C10.1354 -0.0415275 9.86455 -0.0415275 9.70538 0.124582L0.122366 10.1258C-0.0276113 10.2832 -0.0501194 10.5423 0.113217 10.7267C0.302393 10.9242 0.556528 10.8946 0.705701 10.7441L0.71152 10.7406L9.99956 1.0473L19.2876 10.7406L19.2926 10.7441C19.4509 10.905 19.7134 10.905 19.8709 10.7441L19.8767 10.7406C20.0292 10.5832 20.0492 10.3197 19.8859 10.1397Z" fill="#CBCFD4"/>
</svg>
