<svg width="35" height="40" viewBox="0 0 35 40" fill="none" xmlns="http://www.w3.org/2000/svg">
<path d="M11.3419 29.4319L9.7856 26.9044L6.49955 27.4954L10.8212 19.8234H2.39412V40H16.7532V19.8234L11.3419 29.4319Z" fill="#930000"/>
<path d="M34.9758 10.1951H25.4406C25.9982 9.90745 26.4961 9.60701 26.9371 9.28805C28.6327 8.07205 29.5332 6.5314 29.5304 5.00214C29.5304 3.74769 28.9372 1.95073 28.0751 1.20177C27.2116 0.444255 26.0665 0 24.8445 0C23.5387 0 22.3252 0.448526 21.2854 1.14623C19.722 2.19422 18.4986 4.4639 17.6266 6.19536C17.5825 6.28222 17.5384 6.36623 17.4957 6.45023C17.1771 5.78243 16.8044 4.44539 16.3819 3.83597C15.6422 2.77944 14.7531 1.84537 13.7089 1.14623C12.6719 0.448526 11.4599 0 10.1555 0C8.85527 0.00427168 7.66461 0.549623 6.7741 1.39114C5.88786 2.22412 5.26764 4.09939 5.26195 5.43927C5.25626 6.22099 5.48386 7.03973 5.95472 7.78442C6.5465 8.71707 7.48395 9.53012 8.77845 10.1951H0L0.0199155 18.2187H16.5042V10.1951H18.5128V18.2187H35L34.9758 10.1951ZM9.34746 7.68617C8.68599 7.26755 8.27914 6.8475 8.04016 6.47017C7.80828 6.09569 7.7272 5.43785 7.7272 5.11462C7.72151 4.57497 7.99037 3.62808 8.46834 3.18382C8.93493 2.73815 9.56938 2.46333 10.1384 2.46333H10.1555C10.8881 2.46903 11.6136 2.71394 12.3447 3.19664C13.433 3.91571 14.4586 5.87071 15.1713 7.30315C15.544 8.03218 15.8285 8.79396 16.0206 9.53866C12.7189 9.19692 10.5851 8.46789 9.34746 7.68617ZM20.6324 5.9419C21.227 5.08899 21.9283 3.68219 22.6553 3.19664C23.3779 2.71394 24.1119 2.46903 24.8445 2.46333H24.8517C25.4619 2.46333 26.0494 2.70255 26.4492 3.0571C26.8503 3.41734 27.0651 4.07661 27.0651 4.54079C27.0566 5.08899 26.7735 6.35056 25.4946 7.28606C24.2812 8.17172 22.1744 9.07874 18.9353 9.7138C19.2412 8.42802 19.8401 7.06678 20.6324 5.9419Z" fill="#930000"/>
<path d="M28.5175 27.4626L25.2329 26.9044L23.6823 29.4618L18.3407 19.953V40H32.6272V19.8234H24.2001L28.5175 27.4626Z" fill="#930000"/>
</svg>
