<svg width="40" height="40" viewBox="0 0 40 40" fill="none" xmlns="http://www.w3.org/2000/svg">
<path d="M20 0C8.97203 0 0 8.97203 0 20C0 31.028 8.97203 40 19.9998 40C31.0278 40 39.9998 31.028 39.9998 20C39.9998 8.97203 31.028 0 20 0ZM18.3913 1.55713H21.4939V4.65967H18.3913V1.55713ZM33.9676 20C33.9676 27.7019 27.7017 33.9676 20 33.9676C12.2983 33.9676 6.03254 27.7017 6.03254 20C6.03254 12.2983 12.2985 6.03237 20 6.03237C27.7017 6.03237 33.9676 12.2983 33.9676 20ZM8.05591 5.86207L10.2498 8.05591L8.05591 10.2498L5.86207 8.05591L8.05591 5.86207ZM4.60227 21.5513H1.49973V18.4487H4.60227V21.5513ZM8.05591 34.1381L5.86207 31.9443L8.05591 29.7504L10.2498 31.9443L8.05591 34.1381ZM21.4939 38.4429H18.3913V35.3403H21.4939V38.4429ZM31.9441 34.1381L29.7502 31.9443L31.9441 29.7504L34.1379 31.9443L31.9441 34.1381ZM31.9441 10.2498L29.7502 8.05591L31.9441 5.86207L34.1379 8.05591L31.9441 10.2498ZM35.2829 21.5513V18.4487H38.3855V21.5513H35.2829Z" fill="#930000"/>
<path d="M8.61801 20C8.61801 26.2761 13.7239 31.3822 20 31.3822C26.2761 31.3822 31.3822 26.2761 31.3822 20C31.3822 13.7239 26.2761 8.61783 20 8.61783C13.7239 8.61783 8.61801 13.7239 8.61801 20ZM25.4426 19.0351C25.9795 19.9083 26.1525 20.685 26.1525 21.6076C26.1525 23.888 24.5433 25.114 22.7139 25.114C21.466 25.114 20.7553 24.5244 20.3677 24.0338L21.0292 26.3775H18.9498L19.5967 24.0876C19.197 24.5633 18.4972 25.1599 17.2948 25.1599C15.4653 25.1599 13.8473 23.9111 13.8473 21.6306C13.8473 20.7077 14.0161 19.9081 14.5528 19.0349C15.3898 17.6731 20.0121 13.7532 20.0121 13.7532C20.0121 13.7532 24.6056 17.6733 25.4426 19.0351Z" fill="#930000"/>
</svg>
