<svg width="40" height="40" viewBox="0 0 40 40" fill="none" xmlns="http://www.w3.org/2000/svg">
<path d="M23.154 13.0077H3.05339C1.37391 13.0077 0 14.4228 0 16.1525V36.8551C0 38.5848 1.37391 40 3.05339 40H23.154C24.833 40 26.2071 38.5848 26.2071 36.8551V16.1525C26.2072 14.4228 24.833 13.0077 23.154 13.0077ZM6.15639 36.5997C4.57936 36.5997 3.30162 35.2833 3.30162 33.6595C3.30162 32.0358 4.57947 30.7193 6.15639 30.7193C7.73274 30.7193 9.01081 32.0358 9.01081 33.6595C9.0107 35.2833 7.73274 36.5997 6.15639 36.5997ZM6.15639 22.2883C4.57958 22.2883 3.30162 20.972 3.30162 19.3482C3.30162 17.7243 4.5797 16.4079 6.15639 16.4079C7.73274 16.4079 9.01104 17.7244 9.01104 19.3482C9.01104 20.972 7.73274 22.2883 6.15639 22.2883ZM13.1037 29.0701C11.5271 29.0701 10.2489 27.7535 10.2489 26.1299C10.2489 24.506 11.5272 23.1897 13.1037 23.1897C14.6802 23.1897 15.9584 24.5061 15.9584 26.1299C15.9584 27.7535 14.6802 29.0701 13.1037 29.0701ZM20.051 36.5997C18.4745 36.5997 17.1964 35.2833 17.1964 33.6595C17.1964 32.0358 18.4745 30.7192 20.051 30.7192C21.6276 30.7192 22.9058 32.0359 22.9058 33.6595C22.9059 35.2833 21.6276 36.5997 20.051 36.5997ZM20.051 22.2883C18.4745 22.2883 17.1964 20.972 17.1964 19.3482C17.1964 17.7243 18.4745 16.4079 20.051 16.4079C21.6278 16.4079 22.9058 17.7244 22.9058 19.3482C22.9059 20.972 21.6278 22.2883 20.051 22.2883Z" fill="#930000"/>
<path d="M36.7043 0.000115574L15.0092 0C13.1968 0 11.7138 1.52742 11.7138 3.39419V8.46871C11.7138 8.46871 11.656 9.73433 13.0682 9.73433C15.6956 9.73433 24.0627 9.73433 24.0627 9.73433C27.0692 9.73433 29.5153 12.2537 29.5153 15.3504V27.6616C29.5153 29.1334 30.7996 29.1334 31.4706 29.1334C34.0615 29.1334 36.7044 29.1334 36.7044 29.1334C38.517 29.1334 40 27.606 40 25.7391V3.39419C39.9999 1.52742 38.5169 -8.3828e-09 36.7043 0.000115574ZM33.3552 10.0167C31.6537 10.0167 30.2742 8.59596 30.2742 6.84328C30.2742 5.09082 31.6537 3.67008 33.3552 3.66997C35.0572 3.66997 36.4367 5.09082 36.4367 6.84328C36.4365 8.59596 35.0572 10.0167 33.3552 10.0167Z" fill="#930000"/>
</svg>
