<svg width="40" height="40" viewBox="0 0 40 40" fill="none" xmlns="http://www.w3.org/2000/svg">
<path d="M33.577 11.0469C33.737 11.2122 33.9503 11.3009 34.1654 11.3009C34.6253 11.3009 34.9987 10.9113 34.9987 10.4312V2.60419C34.9987 2.12415 34.627 1.73449 34.1654 1.73449H26.6656C26.3289 1.73449 26.0239 1.94494 25.8956 2.27364C25.7656 2.59715 25.8373 2.9694 26.0756 3.21981L33.577 11.0469ZM4.99961 20.208V39.9999H16.6659V27.8246H23.3324V40H34.9987V20.208L19.9991 4.55396L4.99961 20.208ZM39.7718 20.2793L39.7551 20.2515L20.5891 0.249165C20.2707 -0.0830549 19.7291 -0.0830549 19.4108 0.249165L0.244732 20.2515C-0.0552226 20.5663 -0.100239 21.0846 0.226435 21.4535C0.604785 21.8483 1.11306 21.7891 1.4114 21.4882L1.42304 21.4813L19.9991 2.09459L38.5752 21.4813L38.5852 21.4882C38.9019 21.81 39.4268 21.81 39.7419 21.4882L39.7535 21.4813C40.0584 21.1664 40.0985 20.6394 39.7718 20.2793Z" fill="#930000"/>
</svg>
