<svg width="12" height="12" viewBox="0 0 12 12" fill="none" xmlns="http://www.w3.org/2000/svg">
<path d="M6 0C9.30831 0 12 2.69146 12 6C12 9.30854 9.30831 12 6 12C2.69169 12 0 9.30854 0 6C0 2.69146 2.69169 0 6 0ZM6 11.5385C9.05377 11.5385 11.5385 9.05377 11.5385 6C11.5385 2.94623 9.05377 0.461538 6 0.461538C2.94623 0.461538 0.461538 2.94623 0.461538 6C0.461538 9.05377 2.94623 11.5385 6 11.5385Z" fill="black"/>
<path d="M3 5.76923H9C9.12739 5.76923 9.23077 5.87238 9.23077 6C9.23077 6.12761 9.12739 6.23076 9 6.23076H3C2.87262 6.23076 2.76924 6.12761 2.76924 6C2.76924 5.87238 2.87262 5.76923 3 5.76923Z" fill="black"/>
</svg>
