<svg width="40" height="40" viewBox="0 0 40 40" fill="none" xmlns="http://www.w3.org/2000/svg">
<path d="M38.5714 10H31.4286V1.4286C31.4286 0.639592 30.789 0 30 0H1.4286C0.639592 0 0 0.639592 0 1.4286V34.2857C0 37.4416 2.55837 40 5.71431 40H34.2857C37.4416 40 40 37.4416 40 34.2857V11.4285C40 10.6396 39.3604 10 38.5714 10ZM11.4285 7.14282H20C20.789 7.14282 21.4286 7.78242 21.4286 8.57142C21.4286 9.36043 20.789 10 20 10H11.4285C10.6395 10 9.99994 9.36043 9.99994 8.57142C9.99994 7.78242 10.6396 7.14282 11.4285 7.14282ZM24.2857 34.2857H7.14282C6.35382 34.2857 5.71423 33.6461 5.71423 32.8571C5.71423 32.0681 6.35382 31.4285 7.14282 31.4285H24.2857C25.0747 31.4285 25.7143 32.0681 25.7143 32.8571C25.7143 33.6461 25.0747 34.2857 24.2857 34.2857ZM24.2857 28.5714H7.14282C6.35382 28.5714 5.71423 27.9318 5.71423 27.1428C5.71423 26.3538 6.35382 25.7142 7.14282 25.7142H24.2857C25.0747 25.7142 25.7143 26.3538 25.7143 27.1428C25.7143 27.9318 25.0747 28.5714 24.2857 28.5714ZM24.2857 22.8572H7.14282C6.35382 22.8572 5.71423 22.2176 5.71423 21.4286C5.71423 20.6396 6.35382 20 7.14282 20H24.2857C25.0747 20 25.7143 20.6396 25.7143 21.4286C25.7143 22.2176 25.0747 22.8572 24.2857 22.8572ZM24.2857 17.1428H7.14282C6.35382 17.1428 5.71423 16.5033 5.71423 15.7142C5.71423 14.9252 6.35382 14.2856 7.14282 14.2856H24.2857C25.0747 14.2856 25.7143 14.9252 25.7143 15.7142C25.7143 16.5033 25.0747 17.1428 24.2857 17.1428ZM37.1428 34.2857C37.1428 35.8636 35.8636 37.1428 34.2857 37.1428C32.7078 37.1428 31.4286 35.8636 31.4286 34.2857V12.8571H37.1429V34.2857H37.1428Z" fill="#930000"/>
</svg>
