<?xml version="1.0" encoding="utf-8"?>
<!-- Generator: Adobe Illustrator 23.0.4, SVG Export Plug-In . SVG Version: 6.00 Build 0)  -->
<svg version="1.1" id="September_BONUS_COLLECTION_2_Crack_This_Piñata_Open_and_Get_Your_September_Bonuses"
	 xmlns="http://www.w3.org/2000/svg" xmlns:xlink="http://www.w3.org/1999/xlink" x="0px" y="0px" width="1000px" height="1000px"
	 viewBox="0 0 1000 1000" style="enable-background:new 0 0 1000 1000;" xml:space="preserve">
<style type="text/css">
	.st0{fill:#DD4096;}
	.st1{fill:none;stroke:#ED5FB1;stroke-width:62.8758;stroke-linecap:round;stroke-linejoin:round;stroke-miterlimit:10;}
	.st2{fill:#F985D6;}
	.st3{fill:#ED5FB1;}
	.st4{fill:#D8D8D8;}
	.st5{fill:#ACACAC;}
	.st6{fill:#383B40;}
	.st7{fill:#EEEEEE;}
	.st8{fill:none;stroke:#ED5FB1;stroke-width:7.8745;stroke-linecap:round;stroke-miterlimit:10;}
	.st9{fill:none;}
	.st10{fill:none;stroke:#383B40;stroke-width:7.8745;stroke-linecap:round;stroke-linejoin:round;stroke-miterlimit:10;}
	.st11{fill:none;stroke:#383B40;stroke-width:7.8595;stroke-linecap:round;stroke-linejoin:round;stroke-miterlimit:10;}
	.st12{fill:none;stroke:#383B40;stroke-width:4.7157;stroke-linecap:round;stroke-linejoin:round;stroke-miterlimit:10;}
	.st13{fill:none;stroke:#FFFFFF;stroke-width:4.7157;stroke-linecap:round;stroke-linejoin:round;stroke-miterlimit:10;}
	.st14{fill:#FFFFFF;}
	.st15{fill:none;stroke:#ED5FB1;stroke-width:4.7157;stroke-linecap:round;stroke-linejoin:round;stroke-miterlimit:10;}
</style>
<rect class="st0" width="1000" height="1000"/>
<g>
	<g>
		<g>
			<line class="st1" x1="793.429" y1="238.427" x2="679.469" y2="352.386"/>
			<line class="st1" x1="408.634" y1="679.823" x2="294.674" y2="793.782"/>
			<line class="st1" x1="258.392" y1="281.193" x2="396.679" y2="419.48"/>
			<line class="st1" x1="723.332" y1="573.697" x2="891.865" y2="573.697"/>
			<line class="st1" x1="302.824" y1="573.697" x2="419.768" y2="573.697"/>
			<line class="st1" x1="550.896" y1="192.016" x2="550.896" y2="284.838"/>
			<line class="st1" x1="535.177" y1="687.629" x2="535.177" y2="790.312"/>
			<line class="st1" x1="551.233" y1="431.416" x2="551.323" y2="431.506"/>
			<line class="st1" x1="828.256" y1="752.477" x2="828.345" y2="752.566"/>
			<line class="st1" x1="245.731" y1="689.711" x2="245.821" y2="689.801"/>
			<line class="st1" x1="224.659" y1="461.407" x2="224.748" y2="461.496"/>
			<line class="st1" x1="466.527" y1="331.95" x2="466.616" y2="332.04"/>
			<line class="st1" x1="676.835" y1="839.173" x2="676.924" y2="839.263"/>
			<line class="st1" x1="741.031" y1="474.358" x2="741.12" y2="474.448"/>
		</g>
		<g>
			<g>
				<g>
					<g>
						<path class="st2" d="M856.232,700.503H352.883V433.281h431.844c39.491,0,71.504,32.014,71.504,71.504V700.503z"/>
					</g>
				</g>
			</g>
			<g>
				<g>
					<g>
						<g>
							<path class="st3" d="M856.232,504.785c0-39.491-32.014-71.504-71.504-71.504H352.883V449h416.125
								c39.491,0,71.504,32.014,71.504,71.504v179.999h15.719V504.785z"/>
						</g>
					</g>
				</g>
			</g>
			<g>
				<g>
					<g>
						<rect x="352.211" y="685.826" class="st3" width="503.849" height="14.788"/>
					</g>
				</g>
			</g>
			<g>
				<g>
					<g>
						<g>
							<path class="st4" d="M405.037,788.897h-17.269c-19.266,0-34.884-15.618-34.884-34.884v-53.399h87.038v53.399
								C439.922,773.278,424.303,788.897,405.037,788.897z"/>
						</g>
					</g>
				</g>
			</g>
			<g>
				<g>
					<g>
						<path class="st5" d="M439.922,754.012v-53.398h-55.6v53.398c0,16.839,11.931,30.89,27.8,34.163
							C427.991,784.902,439.922,770.851,439.922,754.012z"/>
					</g>
				</g>
			</g>
			<g>
				<g>
					<g>
						<path class="st6" d="M405.037,792.826h-17.269c-21.402,0-38.814-17.412-38.814-38.814v-53.399c0-2.171,1.759-3.93,3.93-3.93
							h87.038c2.171,0,3.93,1.759,3.93,3.93v53.399C443.851,775.414,426.439,792.826,405.037,792.826z M356.813,704.543v49.469
							c0,17.068,13.886,30.954,30.954,30.954h17.269c17.068,0,30.954-13.886,30.954-30.954v-49.469H356.813z"/>
					</g>
				</g>
			</g>
			<g>
				<g>
					<g>
						<g>
							<path class="st4" d="M821.348,788.897h-17.269c-19.266,0-34.884-15.618-34.884-34.884v-53.399h87.038v53.399
								C856.232,773.278,840.614,788.897,821.348,788.897z"/>
						</g>
					</g>
				</g>
			</g>
			<g>
				<g>
					<g>
						<path class="st5" d="M856.232,754.012v-53.398h-55.6v53.398c0,16.839,11.931,30.89,27.8,34.163
							C844.301,784.902,856.232,770.851,856.232,754.012z"/>
					</g>
				</g>
			</g>
			<g>
				<g>
					<g>
						<path class="st6" d="M821.348,792.826h-17.269c-21.402,0-38.814-17.412-38.814-38.814v-53.399c0-2.171,1.759-3.93,3.93-3.93
							h87.038c2.171,0,3.93,1.759,3.93,3.93v53.399C860.161,775.414,842.749,792.826,821.348,792.826z M773.124,704.543v49.469
							c0,17.068,13.886,30.954,30.954,30.954h17.269c17.068,0,30.954-13.886,30.954-30.954v-49.469H773.124z"/>
					</g>
				</g>
			</g>
			<g>
				<g>
					<g>
						<g>
							<g>
								<path class="st2" d="M455.207,221.302c0-15.63-12.67-28.3-28.3-28.3c-15.63,0-28.3,12.67-28.3,28.3v51.881l-83.577,4.601
									c-1.321,0-2.632,0.041-3.937,0.107c-0.418,0.021-0.833,0.056-1.25,0.084c-0.89,0.059-1.778,0.129-2.66,0.218
									c-0.479,0.048-0.957,0.103-1.434,0.16c-0.829,0.099-1.655,0.212-2.477,0.336c-0.472,0.072-0.944,0.141-1.413,0.221
									c-0.886,0.151-1.765,0.322-2.641,0.502c-0.38,0.078-0.764,0.146-1.142,0.229c-1.207,0.266-2.405,0.558-3.592,0.877
									c-0.41,0.11-0.814,0.237-1.222,0.354c-0.798,0.228-1.593,0.46-2.381,0.711c-0.522,0.167-1.04,0.344-1.558,0.521
									c-0.662,0.226-1.322,0.458-1.976,0.7c-0.548,0.203-1.094,0.409-1.637,0.623c-0.618,0.243-1.229,0.497-1.84,0.754
									c-0.546,0.23-1.094,0.456-1.633,0.697c-0.621,0.277-1.232,0.571-1.845,0.862c-0.965,0.458-1.919,0.933-2.863,1.426
									c-0.544,0.283-1.091,0.561-1.628,0.856c-0.599,0.328-1.187,0.673-1.777,1.015c-0.46,0.266-0.92,0.532-1.374,0.806
									c-0.598,0.361-1.19,0.731-1.778,1.106c-0.426,0.272-0.849,0.547-1.27,0.825c-0.596,0.393-1.189,0.79-1.774,1.197
									c-0.381,0.265-0.755,0.538-1.131,0.81c-0.606,0.435-1.214,0.869-1.808,1.318c27.171,16.175,45.384,45.827,45.384,79.743
									c0,20.661-6.763,39.739-18.186,55.157c0.002,0,0.005,0.001,0.007,0.002c2.551,0.591,5.154,1.083,7.797,1.479
									c0.337,0.05,0.674,0.1,1.012,0.147c0.715,0.1,1.433,0.195,2.154,0.28c0.962,0.112,1.927,0.214,2.899,0.299
									c0.47,0.041,0.944,0.072,1.417,0.107c0.872,0.064,1.746,0.12,2.626,0.162c0.394,0.019,0.789,0.037,1.185,0.051
									c1.243,0.045,2.49,0.077,3.747,0.077h140.177v-0.687l-0.011-152.931l0.011,0V221.302z"/>
							</g>
						</g>
					</g>
					<g>
						<g>
							<g>
								<path class="st2" d="M289.323,282.103c0.518-0.177,1.035-0.355,1.558-0.521
									C290.358,281.748,289.841,281.927,289.323,282.103z"/>
							</g>
						</g>
					</g>
					<g>
						<g>
							<g>
								<path class="st2" d="M285.709,283.426c0.543-0.214,1.089-0.42,1.637-0.623C286.798,283.006,286.252,283.212,285.709,283.426
									z"/>
							</g>
						</g>
					</g>
					<g>
						<g>
							<g>
								<path class="st2" d="M298.076,279.639c0.378-0.083,0.762-0.151,1.142-0.229
									C298.838,279.488,298.454,279.556,298.076,279.639z"/>
							</g>
						</g>
					</g>
					<g>
						<g>
							<g>
								<path class="st2" d="M293.262,280.87c0.408-0.117,0.811-0.244,1.222-0.354C294.073,280.627,293.67,280.754,293.262,280.87z"
									/>
							</g>
						</g>
					</g>
					<g>
						<g>
							<g>
								<path class="st2" d="M267.926,292.972c0.585-0.407,1.179-0.804,1.774-1.197
									C269.105,292.168,268.511,292.564,267.926,292.972z"/>
							</g>
						</g>
					</g>
					<g>
						<g>
							<g>
								<path class="st2" d="M277.528,287.165c0.944-0.493,1.898-0.968,2.863-1.426
									C279.426,286.197,278.472,286.673,277.528,287.165z"/>
							</g>
						</g>
					</g>
					<g>
						<g>
							<g>
								<path class="st2" d="M270.971,290.949c0.588-0.375,1.18-0.745,1.778-1.106C272.151,290.204,271.559,290.574,270.971,290.949
									z"/>
							</g>
						</g>
					</g>
					<g>
						<g>
							<g>
								<path class="st2" d="M274.123,289.037c0.59-0.342,1.178-0.687,1.777-1.015C275.301,288.35,274.713,288.695,274.123,289.037z
									"/>
							</g>
						</g>
					</g>
					<g>
						<g>
							<g>
								<path class="st2" d="M282.236,284.877c0.54-0.241,1.088-0.467,1.634-0.697C283.324,284.41,282.776,284.636,282.236,284.877z
									"/>
							</g>
						</g>
					</g>
					<g>
						<g>
							<g>
								<path class="st2" d="M301.859,278.909c0.469-0.08,0.941-0.149,1.413-0.22C302.8,278.76,302.328,278.829,301.859,278.909z"/>
							</g>
						</g>
					</g>
					<g>
						<g>
							<g>
								<path class="st2" d="M309.842,277.974c0.417-0.027,0.832-0.062,1.25-0.084C310.673,277.912,310.259,277.947,309.842,277.974
									z"/>
							</g>
						</g>
					</g>
					<g>
						<g>
							<g>
								<path class="st2" d="M307.472,432.315c-0.473-0.035-0.947-0.066-1.417-0.107
									C306.526,432.249,306.999,432.281,307.472,432.315z"/>
							</g>
						</g>
					</g>
					<g>
						<g>
							<g>
								<g>
									<path class="st7" d="M264.988,295.1c0.014,0.008,0.027,0.017,0.041,0.026c0.59-0.447,1.164-0.911,1.766-1.344
										C266.189,294.217,265.581,294.65,264.988,295.1z"/>
								</g>
							</g>
						</g>
						<g>
							<g>
								<g>
									<path class="st5" d="M310.372,374.843c0-33.899-18.195-63.537-45.343-79.718c-2.448,1.854-4.789,3.82-7.015,5.892
										c22.258,16.94,36.639,43.696,36.639,73.826c0,18.918-5.682,36.499-15.407,51.167c4.137,1.607,8.459,2.95,12.94,3.99
										C303.609,414.583,310.372,395.505,310.372,374.843z"/>
								</g>
							</g>
						</g>
						<g>
							<g>
								<g>
									<path class="st4" d="M258.014,301.017c-16.002,14.894-26.017,34.972-26.017,54.273v9.874
										c0,26.836,19.308,49.991,47.248,60.846c9.725-14.669,15.407-32.25,15.407-51.167
										C294.653,344.713,280.272,317.957,258.014,301.017z"/>
								</g>
							</g>
						</g>
					</g>
					<g>
						<g>
							<g>
								<path class="st2" d="M299.99,431.482c-2.643-0.396-5.246-0.888-7.797-1.48C294.745,430.594,297.345,431.088,299.99,431.482z
									"/>
							</g>
						</g>
					</g>
					<g>
						<g>
							<g>
								<path class="st2" d="M303.156,431.909c-0.721-0.085-1.439-0.18-2.154-0.28C301.718,431.727,302.434,431.825,303.156,431.909
									z"/>
							</g>
						</g>
					</g>
					<g>
						<g>
							<g>
								<path class="st2" d="M311.283,432.529c-0.396-0.014-0.791-0.032-1.185-0.051
									C310.492,432.497,310.887,432.515,311.283,432.529z"/>
							</g>
						</g>
					</g>
					<g>
						<g>
							<g>
								<path class="st2" d="M305.748,278.352c0.477-0.057,0.954-0.112,1.434-0.16C306.702,278.24,306.225,278.295,305.748,278.352z
									"/>
							</g>
						</g>
					</g>
					<g>
						<g>
							<g>
								<path class="st2" d="M310.098,432.478c-0.879-0.042-1.754-0.098-2.625-0.162
									C308.344,432.38,309.219,432.435,310.098,432.478z"/>
							</g>
						</g>
					</g>
					<g>
						<g>
							<g>
								<path class="st2" d="M306.055,432.208c-0.972-0.085-1.937-0.187-2.899-0.299
									C304.117,432.022,305.084,432.122,306.055,432.208z"/>
							</g>
						</g>
					</g>
					<g>
						<g>
							<g>
								<polygon class="st2" points="292.186,430 292.193,430.002 292.186,430 								"/>
							</g>
						</g>
					</g>
					<g>
						<g>
							<g>
								<path class="st2" d="M269.701,291.774c0.421-0.278,0.844-0.554,1.27-0.825C270.545,291.221,270.122,291.496,269.701,291.774
									z"/>
							</g>
						</g>
					</g>
					<g>
						<g>
							<g>
								<path class="st2" d="M266.795,293.781c0.376-0.271,0.75-0.544,1.131-0.81C267.545,293.237,267.171,293.51,266.795,293.781z"
									/>
							</g>
						</g>
					</g>
					<g>
						<g>
							<g>
								<path class="st2" d="M301.002,431.628c-0.338-0.047-0.675-0.097-1.012-0.147
									C300.327,431.532,300.664,431.581,301.002,431.628z"/>
							</g>
						</g>
					</g>
					<g>
						<g>
							<g>
								<path class="st2" d="M272.749,289.843c0.454-0.274,0.914-0.54,1.374-0.806C273.663,289.303,273.203,289.568,272.749,289.843
									z"/>
							</g>
						</g>
					</g>
					<g>
						<g>
							<g>
								<path class="st2" d="M307.182,278.192c0.882-0.089,1.77-0.158,2.66-0.218C308.951,278.034,308.064,278.103,307.182,278.192z
									"/>
							</g>
						</g>
					</g>
					<g>
						<g>
							<g>
								<path class="st2" d="M275.9,288.021c0.537-0.295,1.084-0.573,1.628-0.856C276.984,287.449,276.437,287.727,275.9,288.021z"
									/>
							</g>
						</g>
					</g>
					<g>
						<g>
							<g>
								<path class="st2" d="M303.271,278.688c0.822-0.124,1.647-0.238,2.477-0.336
									C304.918,278.451,304.093,278.564,303.271,278.688z"/>
							</g>
						</g>
					</g>
					<g>
						<g>
							<g>
								<path class="st2" d="M311.283,432.529c1.243,0.046,2.49,0.077,3.747,0.077h140.177l0,0H315.029
									C313.773,432.606,312.526,432.574,311.283,432.529z"/>
							</g>
						</g>
					</g>
					<g>
						<g>
							<g>
								<path class="st2" d="M299.218,279.41c0.876-0.179,1.755-0.351,2.641-0.502C300.973,279.059,300.094,279.231,299.218,279.41z
									"/>
							</g>
						</g>
					</g>
					<g>
						<g>
							<g>
								<path class="st2" d="M294.484,280.517c1.187-0.319,2.385-0.612,3.592-0.877
									C296.869,279.905,295.671,280.197,294.484,280.517z"/>
							</g>
						</g>
					</g>
					<g>
						<g>
							<g>
								<path class="st2" d="M280.391,285.739c0.613-0.291,1.224-0.585,1.845-0.862
									C281.615,285.154,281.004,285.448,280.391,285.739z"/>
							</g>
						</g>
					</g>
					<g>
						<g>
							<g>
								<path class="st2" d="M283.87,284.18c0.611-0.257,1.222-0.511,1.84-0.754C285.092,283.669,284.48,283.923,283.87,284.18z"/>
							</g>
						</g>
					</g>
					<g>
						<g>
							<g>
								<path class="st2" d="M290.881,281.582c0.788-0.251,1.584-0.484,2.381-0.712C292.464,281.098,291.669,281.33,290.881,281.582
									z"/>
							</g>
						</g>
					</g>
					<g>
						<g>
							<g>
								<path class="st2" d="M287.346,282.803c0.655-0.242,1.314-0.474,1.977-0.7C288.661,282.329,288.001,282.561,287.346,282.803z
									"/>
							</g>
						</g>
					</g>
					<g>
						<g>
							<g>
								<path class="st2" d="M455.207,221.302c0-15.63-12.67-28.3-28.3-28.3c-15.63,0-28.3,12.67-28.3,28.3v51.881l-83.577,4.601
									c-1.321,0-2.632,0.041-3.937,0.107c-0.418,0.021-0.833,0.056-1.25,0.084c-0.89,0.059-1.778,0.129-2.66,0.218
									c-0.479,0.048-0.957,0.103-1.434,0.16c-0.829,0.099-1.655,0.212-2.477,0.336c-0.472,0.072-0.944,0.141-1.413,0.221
									c-0.886,0.151-1.765,0.322-2.641,0.502c-0.38,0.078-0.764,0.146-1.142,0.229c-1.207,0.266-2.405,0.558-3.592,0.877
									c-0.41,0.11-0.814,0.237-1.222,0.354c-0.798,0.228-1.593,0.46-2.381,0.711c-0.522,0.167-1.04,0.344-1.558,0.521
									c-0.662,0.226-1.322,0.458-1.976,0.7c-0.548,0.203-1.094,0.409-1.637,0.623c-0.618,0.243-1.229,0.497-1.84,0.754
									c-0.546,0.23-1.094,0.456-1.633,0.697c-0.621,0.277-1.232,0.571-1.845,0.862c-0.965,0.458-1.919,0.933-2.863,1.426
									c-0.544,0.283-1.091,0.561-1.628,0.856c-0.599,0.328-1.187,0.673-1.777,1.015c-0.46,0.266-0.92,0.532-1.374,0.806
									c-0.598,0.361-1.19,0.731-1.778,1.106c-0.426,0.272-0.849,0.547-1.27,0.825c-0.596,0.393-1.189,0.79-1.774,1.197
									c-0.381,0.265-0.755,0.538-1.131,0.81c-0.606,0.435-1.214,0.869-1.808,1.318c27.171,16.175,45.384,45.827,45.384,79.743
									c0,20.661-6.763,39.739-18.186,55.157c0.002,0,0.005,0.001,0.007,0.002c2.551,0.591,5.154,1.083,7.797,1.479
									c0.337,0.05,0.674,0.1,1.012,0.147c0.715,0.1,1.433,0.195,2.154,0.28c0.962,0.112,1.927,0.214,2.899,0.299
									c0.47,0.041,0.944,0.072,1.417,0.107c0.872,0.064,1.746,0.12,2.626,0.162c0.394,0.019,0.789,0.037,1.185,0.051
									c1.243,0.045,2.49,0.077,3.747,0.077h140.177v-0.687l-0.011-152.931l0.011,0V221.302z"/>
							</g>
						</g>
					</g>
					<g>
						<g>
							<g>
								<path class="st2" d="M455.207,221.302c0-15.63-12.67-28.3-28.3-28.3c-15.63,0-28.3,12.67-28.3,28.3v51.881l-83.577,4.601
									c-1.321,0-2.632,0.041-3.937,0.107c-0.418,0.021-0.833,0.056-1.25,0.084c-0.89,0.059-1.778,0.129-2.66,0.218
									c-0.479,0.048-0.957,0.103-1.434,0.16c-0.829,0.099-1.655,0.212-2.477,0.336c-0.472,0.072-0.944,0.141-1.413,0.221
									c-0.886,0.151-1.765,0.322-2.641,0.502c-0.38,0.078-0.764,0.146-1.142,0.229c-1.207,0.266-2.405,0.558-3.592,0.877
									c-0.41,0.11-0.814,0.237-1.222,0.354c-0.798,0.228-1.593,0.46-2.381,0.711c-0.522,0.167-1.04,0.344-1.558,0.521
									c-0.662,0.226-1.322,0.458-1.976,0.7c-0.548,0.203-1.094,0.409-1.637,0.623c-0.618,0.243-1.229,0.497-1.84,0.754
									c-0.546,0.23-1.094,0.456-1.633,0.697c-0.621,0.277-1.232,0.571-1.845,0.862c-0.965,0.458-1.919,0.933-2.863,1.426
									c-0.544,0.283-1.091,0.561-1.628,0.856c-0.599,0.328-1.187,0.673-1.777,1.015c-0.46,0.266-0.92,0.532-1.374,0.806
									c-0.598,0.361-1.19,0.731-1.778,1.106c-0.426,0.272-0.849,0.547-1.27,0.825c-0.596,0.393-1.189,0.79-1.774,1.197
									c-0.381,0.265-0.755,0.538-1.131,0.81c-0.606,0.435-1.214,0.869-1.808,1.318c27.171,16.175,45.384,45.827,45.384,79.743
									c0,20.661-6.763,39.739-18.186,55.157c0.002,0,0.005,0.001,0.007,0.002c2.551,0.591,5.154,1.083,7.797,1.479
									c0.337,0.05,0.674,0.1,1.012,0.147c0.715,0.1,1.433,0.195,2.154,0.28c0.962,0.112,1.927,0.214,2.899,0.299
									c0.47,0.041,0.944,0.072,1.417,0.107c0.872,0.064,1.746,0.12,2.626,0.162c0.394,0.019,0.789,0.037,1.185,0.051
									c1.243,0.045,2.49,0.077,3.747,0.077h140.177v-0.687l-0.011-152.931l0.011,0V221.302z"/>
							</g>
						</g>
					</g>
					<g>
						<g>
							<g>
								<g>
									<path class="st2" d="M271.628,298.522c0.655-0.242,1.314-0.474,1.976-0.7c0.518-0.177,1.035-0.354,1.558-0.521
										c0.788-0.251,1.584-0.484,2.381-0.712c0.408-0.117,0.811-0.244,1.222-0.354c1.187-0.319,2.385-0.612,3.592-0.877
										c0.378-0.083,0.762-0.151,1.142-0.229c0.876-0.179,1.755-0.351,2.641-0.502c0.469-0.079,0.941-0.149,1.413-0.221
										c0.822-0.124,1.647-0.238,2.477-0.336c0.477-0.057,0.954-0.112,1.434-0.16c0.882-0.089,1.77-0.159,2.66-0.218
										c0.417-0.027,0.832-0.063,1.25-0.084c1.305-0.066,2.617-0.107,3.937-0.107l83.577-4.601v-14.854l-67.858,3.736
										c-1.321,0-2.632,0.041-3.937,0.107c-0.418,0.021-0.833,0.056-1.25,0.084c-0.89,0.059-1.778,0.129-2.66,0.218
										c-0.479,0.048-0.957,0.103-1.434,0.16c-0.829,0.099-1.655,0.212-2.477,0.336c-0.472,0.072-0.944,0.141-1.413,0.221
										c-0.886,0.151-1.765,0.322-2.641,0.502c-0.38,0.078-0.764,0.146-1.142,0.229c-1.207,0.266-2.405,0.558-3.592,0.877
										c-0.41,0.11-0.814,0.237-1.222,0.354c-0.798,0.228-1.593,0.46-2.381,0.711c-0.522,0.167-1.04,0.344-1.558,0.521
										c-0.662,0.226-1.322,0.458-1.976,0.7c-0.548,0.203-1.094,0.409-1.637,0.623c-0.618,0.243-1.229,0.497-1.84,0.754
										c-0.546,0.23-1.094,0.456-1.633,0.697c-0.621,0.277-1.232,0.571-1.845,0.862c-0.965,0.458-1.919,0.933-2.863,1.426
										c-0.544,0.283-1.091,0.561-1.628,0.856c-0.599,0.328-1.187,0.673-1.777,1.015c-0.46,0.266-0.92,0.532-1.374,0.806
										c-0.598,0.361-1.19,0.731-1.778,1.106c-0.426,0.272-0.849,0.547-1.27,0.825c-0.596,0.393-1.189,0.79-1.774,1.197
										c-0.381,0.265-0.755,0.538-1.131,0.81c-0.606,0.435-1.214,0.869-1.808,1.318c1.977,1.177,3.9,2.433,5.779,3.75
										C271.054,298.74,271.339,298.628,271.628,298.522z"/>
								</g>
							</g>
						</g>
						<g>
							<g>
								<g>
									<path class="st3" d="M455.207,221.302c0-15.63-12.67-28.3-28.3-28.3c-11.903,0-22.072,7.358-26.253,17.766
										c3.258-1.309,6.807-2.047,10.534-2.047c15.63,0,28.3,12.67,28.3,28.3v57.687l-0.011,0l0.01,137.898h15.72v-0.687
										l-0.011-152.931l0.011,0V221.302z"/>
								</g>
							</g>
						</g>
					</g>
					<g>
						<g>
							<g>
								<line class="st2" x1="455.206" y1="431.919" x2="455.206" y2="264.842"/>
							</g>
						</g>
					</g>
				</g>
			</g>
			<g>
				<g>
					<g>
						<circle class="st2" cx="365.573" cy="327.596" r="13.361"/>
					</g>
				</g>
			</g>
			<g>
				<g>
					<g>
						<g>
							<g>
								<path class="st6" d="M398.606,273.663c-1.986,0-3.595-1.609-3.595-3.595v-48.766c0-17.587,14.308-31.895,31.895-31.895
									c17.587,0,31.895,14.308,31.895,31.895v43.54c0,1.986-1.609,3.595-3.595,3.595s-3.595-1.609-3.595-3.595v-43.54
									c0-13.623-11.082-24.705-24.705-24.705c-13.623,0-24.705,11.082-24.705,24.705v48.766
									C402.201,272.053,400.592,273.663,398.606,273.663z"/>
							</g>
						</g>
					</g>
					<g>
						<g>
							<g>
								<path class="st6" d="M289.323,285.699c-1.497,0-2.893-0.941-3.402-2.436c-0.131-0.384-0.193-0.774-0.193-1.158
									c-0.001-1.497,0.941-2.894,2.436-3.404l0.203-0.069c0.473-0.162,0.946-0.322,1.423-0.474
									c1.893-0.605,3.912,0.441,4.516,2.333c0.603,1.891-0.441,3.914-2.332,4.517c-0.001,0-0.001,0-0.002,0l0,0
									c-0.003,0.002-0.007,0.002-0.01,0.004c-0.432,0.138-0.861,0.285-1.29,0.431l-0.189,0.064
									C290.098,285.637,289.707,285.699,289.323,285.699z"/>
							</g>
						</g>
					</g>
					<g>
						<g>
							<g>
								<path class="st6" d="M285.71,287.022c-1.433,0-2.787-0.863-3.345-2.276c-0.17-0.433-0.252-0.879-0.252-1.317
									c0-1.434,0.863-2.788,2.276-3.346c0.565-0.223,1.133-0.437,1.704-0.648c0.002-0.001,0.004-0.002,0.006-0.002
									c0,0,0.001,0,0.002-0.001c1.863-0.686,3.929,0.266,4.617,2.127c0.688,1.862-0.263,3.929-2.125,4.617
									c-0.513,0.19-1.026,0.382-1.535,0.583c-0.01,0.004-0.019,0.008-0.029,0.012C286.596,286.94,286.149,287.022,285.71,287.022z
									"/>
							</g>
						</g>
					</g>
					<g>
						<g>
							<g>
								<path class="st6" d="M298.073,283.235c-1.649,0-3.136-1.143-3.507-2.82c-0.058-0.261-0.085-0.522-0.086-0.779
									c0-1.649,1.143-3.136,2.82-3.507c0.266-0.059,0.533-0.111,0.801-0.163l0.399-0.078c1.947-0.399,3.844,0.859,4.24,2.805
									c0.049,0.242,0.073,0.482,0.073,0.719c0.002,1.674-1.174,3.174-2.877,3.521l-0.471,0.093
									c-0.205,0.039-0.41,0.079-0.613,0.124C298.591,283.207,298.329,283.235,298.073,283.235z"/>
							</g>
						</g>
					</g>
					<g>
						<g>
							<g>
								<path class="st6" d="M293.261,284.466c-1.564,0-3.003-1.028-3.455-2.607c-0.094-0.33-0.14-0.662-0.14-0.989
									c-0.001-1.564,1.028-3.004,2.607-3.456l0.424-0.124c0.285-0.084,0.57-0.169,0.859-0.246
									c1.916-0.516,3.888,0.627,4.401,2.545c0.083,0.311,0.123,0.623,0.123,0.93c0,1.588-1.061,3.041-2.668,3.471
									c-0.223,0.06-0.445,0.126-0.667,0.192l-0.494,0.145C293.921,284.421,293.588,284.466,293.261,284.466z"/>
							</g>
						</g>
					</g>
					<g>
						<g>
							<g>
								<path class="st6" d="M267.929,296.567c-1.137,0-2.255-0.538-2.954-1.542c-1.134-1.629-0.731-3.87,0.898-5.004
									c0.142-0.099,0.284-0.197,0.427-0.295c0.468-0.32,0.941-0.636,1.415-0.949c-0.001,0,0.001-0.001,0.003-0.002
									c1.655-1.094,3.886-0.639,4.98,1.015c1.095,1.656,0.642,3.885-1.013,4.981c-0.424,0.281-0.848,0.563-1.269,0.85
									c-0.147,0.1-0.292,0.2-0.438,0.302C269.353,296.358,268.638,296.567,267.929,296.567z"/>
							</g>
						</g>
					</g>
					<g>
						<g>
							<g>
								<path class="st6" d="M277.531,290.76c-1.297,0-2.55-0.704-3.191-1.934c-0.277-0.531-0.408-1.1-0.408-1.66
									c0-1.296,0.705-2.548,1.934-3.188c0.983-0.513,1.976-1.009,2.982-1.486c1.793-0.853,3.938-0.088,4.789,1.705
									c0.236,0.497,0.348,1.022,0.348,1.538c0,1.345-0.758,2.636-2.054,3.251c-0.924,0.439-1.839,0.895-2.744,1.366
									C278.658,290.63,278.09,290.76,277.531,290.76z"/>
							</g>
						</g>
					</g>
					<g>
						<g>
							<g>
								<path class="st6" d="M270.974,294.544c-1.188,0-2.351-0.589-3.036-1.666c-0.381-0.599-0.562-1.267-0.562-1.928
									c0.001-1.187,0.589-2.349,1.666-3.035c0.613-0.39,1.229-0.776,1.853-1.152c1.702-1.023,3.909-0.476,4.934,1.224
									c0.35,0.581,0.517,1.222,0.516,1.854c-0.001,1.218-0.621,2.405-1.74,3.08c-0.573,0.345-1.14,0.701-1.704,1.06
									C272.302,294.362,271.634,294.544,270.974,294.544z"/>
							</g>
						</g>
					</g>
					<g>
						<g>
							<g>
								<path class="st6" d="M274.126,292.631c-1.241,0-2.448-0.643-3.115-1.794c-0.328-0.567-0.484-1.187-0.484-1.798
									c0-1.24,0.643-2.448,1.794-3.114l0.289-0.167c0.517-0.299,1.035-0.599,1.56-0.887c1.74-0.956,3.926-0.319,4.881,1.422
									c0.301,0.549,0.444,1.142,0.444,1.727c0,1.27-0.675,2.5-1.866,3.154c-0.475,0.261-0.943,0.533-1.411,0.804l-0.294,0.17
									C275.357,292.476,274.737,292.631,274.126,292.631z"/>
							</g>
						</g>
					</g>
					<g>
						<g>
							<g>
								<path class="st6" d="M282.238,288.473c-1.376,0-2.689-0.794-3.285-2.131c-0.213-0.477-0.313-0.974-0.313-1.464
									c0.001-1.375,0.794-2.686,2.131-3.283c0.477-0.213,0.96-0.416,1.443-0.618l0.264-0.111c1.83-0.77,3.936,0.091,4.705,1.92
									c0.77,1.829-0.089,3.936-1.917,4.706l-0.355,0.149c-0.399,0.167-0.797,0.334-1.192,0.51
									c-0.007,0.003-0.013,0.006-0.019,0.008C283.224,288.372,282.727,288.473,282.238,288.473z"/>
							</g>
						</g>
					</g>
					<g>
						<g>
							<g>
								<path class="st6" d="M301.854,282.504c-1.72,0-3.24-1.239-3.539-2.992c-0.035-0.205-0.051-0.408-0.051-0.609
									c0-1.72,1.24-3.24,2.992-3.538c0.412-0.07,0.826-0.133,1.24-0.195l0.239-0.036c1.957-0.296,3.795,1.053,4.092,3.017
									c0.028,0.182,0.041,0.363,0.041,0.542c0,1.748-1.276,3.28-3.058,3.55l-0.244,0.037c-0.368,0.055-0.737,0.111-1.103,0.173
									C302.258,282.487,302.054,282.504,301.854,282.504z"/>
							</g>
						</g>
					</g>
					<g>
						<g>
							<g>
								<path class="st6" d="M309.838,281.569c-1.88,0-3.461-1.461-3.584-3.364c-0.005-0.079-0.008-0.158-0.008-0.236
									c0.002-1.879,1.462-3.459,3.364-3.582l0.431-0.03c0.29-0.021,0.581-0.041,0.873-0.056c1.984-0.107,3.67,1.43,3.769,3.412
									c0.003,0.06,0.005,0.12,0.005,0.18c0.001,1.904-1.494,3.494-3.417,3.589c-0.239,0.012-0.476,0.029-0.713,0.046l-0.484,0.034
									C309.994,281.566,309.916,281.569,309.838,281.569z"/>
							</g>
						</g>
					</g>
					<g>
						<g>
							<g>
								<path class="st6" d="M307.476,435.91c-0.088,0-0.177-0.003-0.266-0.01l-0.328-0.024c-0.381-0.027-0.763-0.055-1.143-0.088
									c-1.976-0.173-3.439-1.917-3.266-3.893c0.173-1.976,1.913-3.451,3.891-3.269l1.369,0.104
									c1.891,0.138,3.333,1.715,3.333,3.582c0,0.087-0.003,0.176-0.01,0.265C310.919,434.468,309.342,435.91,307.476,435.91z"/>
							</g>
						</g>
					</g>
					<g>
						<g>
							<g>
								<path class="st6" d="M292.186,433.595c-0.27,0-0.542-0.031-0.813-0.094c-37.076-8.603-62.971-36.705-62.971-68.338v-9.874
									c0-22.882,13.036-46.751,34.181-62.863c0.074-0.068,0.153-0.132,0.234-0.193c0.529-0.401,1.068-0.788,1.607-1.176
									l0.27-0.194c0.001-0.001,0.001-0.001,0.001-0.001c1.613-1.159,3.857-0.794,5.017,0.818c0.551,0.765,0.758,1.674,0.65,2.541
									c26.998,17.716,43.605,48.229,43.605,80.621c0,20.802-6.533,40.615-18.893,57.297
									C294.387,433.067,293.309,433.595,292.186,433.595z M265.245,299.477c-18.14,14.597-29.653,36.068-29.653,55.813v9.874
									c0,27.621,22.535,52.332,55.095,60.767c10.535-15.023,16.089-32.634,16.089-51.088
									C306.777,344.402,290.925,315.752,265.245,299.477z"/>
							</g>
						</g>
					</g>
					<g>
						<g>
							<g>
								<path class="st6" d="M299.995,435.077c-0.177,0-0.355-0.013-0.533-0.039c-2.709-0.404-5.417-0.917-8.05-1.527
									c-0.011-0.002-0.021-0.005-0.031-0.008c-1.66-0.385-2.782-1.863-2.784-3.497c0-0.269,0.031-0.543,0.094-0.817
									c0.447-1.934,2.376-3.143,4.314-2.689c2.425,0.563,4.955,1.042,7.518,1.426c1.963,0.294,3.316,2.123,3.022,4.086
									C303.279,433.796,301.746,435.077,299.995,435.077z"/>
							</g>
						</g>
					</g>
					<g>
						<g>
							<g>
								<path class="st6" d="M303.161,435.504c-0.138,0-0.278-0.008-0.418-0.025c-0.252-0.029-0.503-0.06-0.754-0.091
									c-0.497-0.063-0.992-0.13-1.487-0.2c-1.964-0.276-3.334-2.092-3.06-4.056c0.274-1.965,2.092-3.336,4.053-3.064
									c0.444,0.061,0.888,0.122,1.334,0.179c0.248,0.031,0.497,0.062,0.746,0.091c1.971,0.231,3.383,2.015,3.153,3.987
									C306.513,434.155,304.96,435.504,303.161,435.504z"/>
							</g>
						</g>
					</g>
					<g>
						<g>
							<g>
								<path class="st6" d="M311.285,436.124c-0.042,0-0.085-0.001-0.127-0.002l-1.227-0.053c-1.927-0.09-3.429-1.681-3.428-3.59
									c0-0.055,0.002-0.111,0.005-0.167c0.093-1.984,1.795-3.529,3.758-3.423l1.143,0.048c1.942,0.068,3.47,1.663,3.47,3.59
									c0,0.042-0.001,0.085-0.002,0.127C314.807,434.596,313.212,436.124,311.285,436.124z"/>
							</g>
						</g>
					</g>
					<g>
						<g>
							<g>
								<path class="st6" d="M305.744,281.947c-1.793,0-3.344-1.339-3.564-3.164c-0.018-0.147-0.026-0.292-0.026-0.436
									c0-1.793,1.339-3.344,3.164-3.564c0.5-0.06,1.001-0.117,1.504-0.168c1.949-0.205,3.737,1.24,3.937,3.216
									c0.012,0.123,0.018,0.246,0.018,0.367c-0.002,1.822-1.382,3.383-3.234,3.571c-0.455,0.046-0.91,0.097-1.362,0.153
									C306.033,281.939,305.887,281.947,305.744,281.947z"/>
							</g>
						</g>
					</g>
					<g>
						<g>
							<g>
								<path class="st6" d="M310.101,436.073c-0.058,0-0.117-0.002-0.176-0.005c-0.001,0-0.002,0-0.003,0l0,0l0,0
									c-0.465-0.022-0.929-0.048-1.392-0.078c-0.443-0.028-0.885-0.058-1.326-0.091c-1.979-0.147-3.464-1.872-3.317-3.851
									c0.147-1.98,1.879-3.453,3.85-3.319c0.406,0.03,0.813,0.058,1.22,0.084c0.438,0.028,0.877,0.052,1.316,0.074
									c1.983,0.097,3.511,1.782,3.415,3.765C313.595,434.576,312.006,436.073,310.101,436.073z"/>
							</g>
						</g>
					</g>
					<g>
						<g>
							<g>
								<path class="st6" d="M306.059,435.803c-0.104,0-0.209-0.005-0.315-0.014c-0.002,0-0.004,0-0.006-0.001l0,0c0,0,0,0-0.001,0
									c-0.488-0.042-0.975-0.089-1.461-0.14c-0.513-0.052-1.024-0.109-1.534-0.17c-0.003-0.002-0.005-0.001-0.008-0.001
									c-1.97-0.233-3.379-2.018-3.148-3.989c0.231-1.97,2.016-3.394,3.987-3.151c0.002,0,0.004,0.001,0.006,0.001l0,0h0.001
									c0.47,0.054,0.939,0.107,1.411,0.156c0.46,0.048,0.92,0.091,1.382,0.133c1.976,0.175,3.437,1.918,3.264,3.894
									C309.472,434.392,307.903,435.803,306.059,435.803z"/>
							</g>
						</g>
					</g>
					<g>
						<g>
							<g>
								<path class="st6" d="M292.194,433.598c-0.223,0-0.447-0.021-0.672-0.064c-1.669-0.312-2.931-1.775-2.931-3.534
									c0-1.986,1.609-3.595,3.595-3.595c0.386,0,0.777,0.064,1.144,0.186c1.507,0.502,2.459,1.905,2.459,3.41
									c0,0.377-0.06,0.76-0.186,1.137C295.101,432.645,293.698,433.598,292.194,433.598z"/>
							</g>
						</g>
					</g>
					<g>
						<g>
							<g>
								<path class="st6" d="M269.704,295.369c-1.167,0-2.311-0.567-3.003-1.614c-0.403-0.609-0.596-1.297-0.596-1.977
									c0-1.167,0.567-2.312,1.614-3.003c0.436-0.289,0.876-0.574,1.318-0.857c1.674-1.067,3.895-0.577,4.964,1.098
									c0.381,0.599,0.564,1.267,0.564,1.927c0.001,1.188-0.586,2.351-1.662,3.037c-0.41,0.261-0.817,0.527-1.223,0.794
									C271.072,295.177,270.384,295.369,269.704,295.369z"/>
							</g>
						</g>
					</g>
					<g>
						<g>
							<g>
								<path class="st6" d="M266.798,297.376c-1.118,0-2.22-0.52-2.922-1.497c-0.456-0.635-0.675-1.367-0.676-2.093
									c-0.001-1.118,0.519-2.221,1.497-2.924l0.291-0.21c0.293-0.212,0.586-0.423,0.882-0.629
									c1.629-1.137,3.869-0.738,5.005,0.891c0.437,0.627,0.647,1.344,0.647,2.054c0,1.135-0.536,2.253-1.538,2.951
									c-0.265,0.185-0.526,0.373-0.787,0.562l-0.303,0.219C268.258,297.157,267.525,297.376,266.798,297.376z"/>
							</g>
						</g>
					</g>
					<g>
						<g>
							<g>
								<path class="st6" d="M301.006,435.223c-0.164,0-0.33-0.012-0.497-0.035l-1.053-0.153c-1.962-0.295-3.314-2.123-3.021-4.085
									c0.292-1.963,2.119-3.313,4.082-3.026l0.987,0.143c1.964,0.277,3.333,2.092,3.059,4.057
									C304.311,433.922,302.771,435.223,301.006,435.223z"/>
							</g>
						</g>
					</g>
					<g>
						<g>
							<g>
								<path class="st6" d="M272.752,293.438c-1.217,0-2.403-0.618-3.079-1.735c-1.028-1.698-0.484-3.907,1.213-4.935
									c0.002-0.001,0.003-0.002,0.004-0.002l0,0c0.002-0.001,0.003-0.002,0.005-0.003c0.24-0.145,0.483-0.289,0.726-0.431
									c0.216-0.127,0.432-0.252,0.649-0.377c0.003-0.002,0.007-0.005,0.01-0.006l0.036-0.021l0.001,0.001
									c1.709-0.956,3.902-0.384,4.889,1.319c0.996,1.716,0.438,3.901-1.278,4.898l-0.004,0.002
									c-0.003,0.002-0.006,0.003-0.009,0.005l-0.216,0.126c-0.137,0.079-0.275,0.159-0.411,0.239
									c-0.231,0.135-0.454,0.267-0.675,0.401c-0.001,0.002-0.004,0.002-0.005,0.003
									C274.026,293.271,273.385,293.438,272.752,293.438z"/>
							</g>
						</g>
					</g>
					<g>
						<g>
							<g>
								<path class="st6" d="M307.177,281.787c-1.823,0-3.385-1.382-3.572-3.234c-0.012-0.124-0.018-0.246-0.018-0.368
									c0.002-1.822,1.382-3.383,3.234-3.57c0.923-0.093,1.85-0.165,2.78-0.228c1.969-0.129,3.694,1.364,3.828,3.346
									c0.005,0.081,0.008,0.162,0.008,0.242c0.001,1.877-1.454,3.458-3.354,3.586c-0.85,0.057-1.698,0.123-2.541,0.208
									C307.419,281.781,307.298,281.787,307.177,281.787z"/>
							</g>
						</g>
					</g>
					<g>
						<g>
							<g>
								<path class="st6" d="M275.903,291.617c-1.27,0-2.501-0.674-3.155-1.866c-0.302-0.55-0.444-1.143-0.444-1.728
									c0-1.27,0.675-2.5,1.866-3.153c0.426-0.234,0.857-0.458,1.289-0.682l0.404-0.21c1.76-0.919,3.932-0.236,4.85,1.524
									c0.277,0.531,0.408,1.1,0.408,1.66c0.001,1.296-0.703,2.549-1.932,3.19l-0.422,0.22c-0.381,0.198-0.764,0.395-1.14,0.602
									C277.08,291.474,276.488,291.617,275.903,291.617z"/>
							</g>
						</g>
					</g>
					<g>
						<g>
							<g>
								<path class="st6" d="M303.267,282.284c-1.747,0-3.28-1.276-3.55-3.056c-0.297-1.963,1.052-3.795,3.013-4.093
									c0.428-0.065,0.857-0.127,1.286-0.186c0.435-0.059,0.871-0.115,1.309-0.167c1.973-0.233,3.759,1.174,3.993,3.145
									s-1.173,3.759-3.144,3.994c-0.001,0-0.002,0-0.003,0l0,0c-0.001,0-0.002,0-0.003,0c-0.396,0.048-0.791,0.098-1.184,0.151
									c-0.391,0.054-0.781,0.11-1.169,0.169c-0.002,0-0.005,0-0.006,0.001C303.627,282.271,303.446,282.284,303.267,282.284z"/>
							</g>
						</g>
					</g>
					<g>
						<g>
							<g>
								<path class="st6" d="M311.089,281.486c-1.902,0-3.49-1.493-3.587-3.414c-0.003-0.061-0.005-0.124-0.005-0.185
									c0.001-1.901,1.493-3.489,3.414-3.587c1.31-0.066,2.626-0.109,3.95-0.112l83.414-7.701c1.989-0.18,3.728,1.272,3.911,3.249
									c0.01,0.112,0.015,0.223,0.015,0.334c0.001,1.837-1.4,3.404-3.264,3.577l-83.577,7.715c-0.111,0.01-0.22,0.015-0.331,0.015
									c-1.26,0-2.511,0.041-3.756,0.104C311.212,281.485,311.15,281.486,311.089,281.486z"/>
							</g>
						</g>
					</g>
					<g>
						<g>
							<g>
								<path class="st6" d="M455.206,436.201H315.029c-1.301,0-2.593-0.033-3.879-0.081c-1.984-0.073-3.532-1.741-3.459-3.724
									c0.072-1.983,1.74-3.559,3.723-3.46c1.199,0.044,2.402,0.074,3.615,0.074h140.177c1.986,0,3.595,1.609,3.595,3.595
									S457.192,436.201,455.206,436.201z"/>
							</g>
						</g>
					</g>
					<g>
						<g>
							<g>
								<path class="st6" d="M299.214,283.006c-1.671,0-3.168-1.171-3.518-2.871c-0.399-1.944,0.853-3.845,2.796-4.244
									c0.916-0.189,1.837-0.368,2.764-0.525c1.953-0.329,3.813,0.985,4.145,2.942c0.035,0.204,0.051,0.408,0.051,0.609
									c-0.001,1.72-1.24,3.24-2.993,3.537c-0.845,0.144-1.684,0.309-2.52,0.48C299.697,282.982,299.454,283.006,299.214,283.006z"
									/>
							</g>
						</g>
					</g>
					<g>
						<g>
							<g>
								<path class="st6" d="M294.482,284.113c-1.586,0-3.037-1.058-3.469-2.662c-0.084-0.312-0.124-0.627-0.124-0.936
									c0-1.586,1.058-3.038,2.662-3.47c1.24-0.333,2.492-0.639,3.754-0.916c1.942-0.43,3.856,0.8,4.283,2.739
									c0.058,0.259,0.084,0.518,0.085,0.774c0.001,1.652-1.144,3.14-2.824,3.509c-1.153,0.254-2.297,0.533-3.43,0.838
									C295.105,284.072,294.791,284.113,294.482,284.113z"/>
							</g>
						</g>
					</g>
					<g>
						<g>
							<g>
								<path class="st6" d="M280.393,289.335c-1.345,0-2.635-0.759-3.25-2.055c-0.236-0.497-0.348-1.022-0.348-1.538
									c0-1.345,0.759-2.635,2.055-3.25l0.294-0.14c0.54-0.256,1.08-0.513,1.626-0.757c1.815-0.81,3.94,0.005,4.748,1.818
									c0.213,0.477,0.313,0.975,0.313,1.464c-0.001,1.375-0.794,2.687-2.131,3.283c-0.494,0.22-0.982,0.453-1.47,0.685l-0.3,0.143
									C281.434,289.223,280.91,289.335,280.393,289.335z"/>
							</g>
						</g>
					</g>
					<g>
						<g>
							<g>
								<path class="st6" d="M283.871,287.776c-1.402,0-2.735-0.827-3.314-2.2c-0.192-0.456-0.283-0.929-0.283-1.394
									c0-1.403,0.826-2.736,2.2-3.315c0.636-0.268,1.275-0.533,1.919-0.787c1.845-0.729,3.934,0.18,4.662,2.028
									c0.17,0.433,0.251,0.879,0.251,1.318c-0.001,1.433-0.864,2.787-2.279,3.344c-0.592,0.233-1.177,0.476-1.761,0.722
									C284.81,287.685,284.337,287.776,283.871,287.776z"/>
							</g>
						</g>
					</g>
					<g>
						<g>
							<g>
								<path class="st6" d="M290.88,285.178c-1.522,0-2.936-0.975-3.424-2.502c-0.116-0.364-0.171-0.733-0.171-1.095
									c0.001-1.522,0.975-2.935,2.502-3.423c0.007-0.002,0.014-0.004,0.021-0.006c0.817-0.261,1.643-0.502,2.47-0.738
									c1.913-0.544,3.897,0.563,4.442,2.471c0.544,1.908-0.561,3.897-2.469,4.442c-0.753,0.216-1.505,0.434-2.25,0.672
									c-0.008,0.002-0.018,0.005-0.026,0.008C291.61,285.123,291.242,285.178,290.88,285.178z"/>
							</g>
						</g>
					</g>
					<g>
						<g>
							<g>
								<path class="st6" d="M287.348,286.399c-1.463,0-2.837-0.899-3.373-2.351c-0.151-0.411-0.223-0.832-0.223-1.246
									c0.001-1.461,0.9-2.835,2.351-3.372c0.683-0.252,1.371-0.495,2.062-0.73c1.88-0.641,3.921,0.365,4.561,2.241
									c0.641,1.879-0.361,3.921-2.24,4.563c-0.635,0.216-1.266,0.439-1.894,0.671C288.182,286.327,287.76,286.399,287.348,286.399
									z"/>
							</g>
						</g>
					</g>
					<g>
						<g>
							<g>
								<path class="st6" d="M455.206,436.201H315.029c-1.3,0-2.591-0.034-3.878-0.081l-1.221-0.052
									c-0.916-0.044-1.821-0.101-2.723-0.168l-0.325-0.024c-0.381-0.027-0.763-0.055-1.143-0.088
									c-1.002-0.087-2.003-0.193-2.999-0.309c-0.751-0.087-1.496-0.186-2.239-0.291l-1.005-0.146
									c-2.778-0.416-5.486-0.93-8.087-1.532c-1.041-0.23-1.942-0.916-2.434-1.893c-0.611-1.213-0.486-2.666,0.322-3.757
									c11.435-15.434,17.479-33.767,17.479-53.017c0-31.262-16.717-60.635-43.629-76.655c-1.028-0.612-1.684-1.695-1.75-2.889
									c-0.067-1.194,0.465-2.343,1.419-3.065c0.529-0.401,1.068-0.788,1.607-1.176l0.563-0.405
									c0.293-0.212,0.586-0.423,0.882-0.629c0.612-0.426,1.23-0.839,1.849-1.248c0.438-0.289,0.877-0.575,1.319-0.857
									c0.617-0.392,1.233-0.778,1.857-1.154c0.452-0.273,0.915-0.541,1.377-0.809l0.34-0.197c0.517-0.299,1.035-0.599,1.56-0.887
									c0.426-0.234,0.857-0.458,1.289-0.682l0.404-0.21c0.986-0.513,1.979-1.009,2.984-1.487l0.296-0.14
									c0.54-0.256,1.08-0.513,1.626-0.757c0.451-0.201,0.905-0.392,1.36-0.583l0.343-0.144c0.636-0.268,1.275-0.533,1.919-0.787
									c0.564-0.223,1.135-0.437,1.708-0.649c0.685-0.253,1.372-0.496,2.064-0.731l0.186-0.064c0.478-0.163,0.956-0.326,1.438-0.48
									c0.824-0.263,1.656-0.507,2.49-0.744l0.42-0.124c0.285-0.084,0.57-0.169,0.859-0.246c1.234-0.332,2.486-0.638,3.748-0.915
									c0.262-0.058,0.53-0.111,0.797-0.162l0.399-0.078c0.911-0.187,1.83-0.366,2.756-0.523c0.411-0.07,0.824-0.133,1.239-0.195
									l0.239-0.036c0.86-0.13,1.723-0.249,2.591-0.352c0.492-0.059,0.992-0.117,1.495-0.167c0.923-0.093,1.85-0.165,2.78-0.228
									l0.441-0.031c0.29-0.021,0.581-0.041,0.873-0.056c1.307-0.066,2.623-0.109,3.947-0.112l83.414-7.701
									c1.989-0.18,3.728,1.272,3.911,3.249c0.182,1.977-1.273,3.728-3.249,3.911l-83.577,7.715
									c-0.111,0.01-0.22,0.015-0.331,0.015c-1.26,0-2.511,0.041-3.756,0.104c-0.242,0.012-0.479,0.029-0.716,0.046l-0.484,0.034
									c-0.84,0.056-1.688,0.122-2.531,0.207c-0.455,0.046-0.91,0.097-1.362,0.153c-0.8,0.094-1.586,0.203-2.371,0.322
									l-0.244,0.037c-0.368,0.055-0.737,0.111-1.103,0.173c-0.847,0.144-1.685,0.309-2.521,0.48l-0.475,0.094
									c-0.205,0.039-0.41,0.078-0.613,0.124c-1.157,0.255-2.301,0.533-3.434,0.839c-0.229,0.061-0.451,0.127-0.673,0.193
									l-0.494,0.145c-0.765,0.218-1.525,0.44-2.277,0.68c-0.437,0.139-0.87,0.287-1.302,0.434l-0.189,0.064
									c-0.634,0.216-1.265,0.438-1.891,0.67c-0.522,0.193-1.044,0.389-1.563,0.594c-0.594,0.233-1.179,0.477-1.763,0.723
									l-0.355,0.149c-0.405,0.17-0.811,0.339-1.211,0.518c-0.494,0.22-0.982,0.453-1.469,0.685l-0.3,0.143
									c-0.923,0.438-1.837,0.894-2.742,1.365l-0.42,0.219c-0.381,0.198-0.764,0.395-1.14,0.602
									c-0.475,0.261-0.943,0.533-1.411,0.804l-0.294,0.17c-0.474,0.274-0.898,0.52-1.316,0.772
									c-0.577,0.348-1.144,0.703-1.708,1.062c-0.406,0.259-0.814,0.524-1.219,0.791c-0.082,0.055-0.164,0.109-0.246,0.163
									c26.365,17.814,42.532,47.946,42.532,79.906c0,18.93-5.41,37.041-15.698,52.719c0.748,0.13,1.499,0.251,2.254,0.364
									l0.972,0.141c0.695,0.097,1.385,0.189,2.079,0.27c0.926,0.108,1.856,0.207,2.792,0.289c0.345,0.031,0.687,0.055,1.029,0.079
									l0.338,0.025c0.844,0.062,1.688,0.117,2.537,0.157l1.137,0.048c1.205,0.044,2.409,0.075,3.621,0.075h138.064
									c0.593-0.431,1.324-0.687,2.114-0.687c1.986,0,3.595,1.609,3.595,3.595v0.687
									C458.802,434.592,457.192,436.201,455.206,436.201z"/>
							</g>
						</g>
					</g>
					<g>
						<g>
							<g>
								<path class="st6" d="M455.206,435.514c-1.986,0-3.595-1.609-3.595-3.595V264.842c0-1.986,1.609-3.595,3.595-3.595
									s3.595,1.609,3.595,3.595v167.078C458.802,433.905,457.192,435.514,455.206,435.514z"/>
							</g>
						</g>
					</g>
				</g>
				<g>
					<g>
						<g>
							<path class="st6" d="M292.189,433.596c-0.269,0-0.542-0.031-0.816-0.094c-37.076-8.603-62.971-36.705-62.971-68.338v-9.874
								c0-22.806,13.187-46.968,34.414-63.055c1.583-1.2,3.838-0.887,5.037,0.694c1.199,1.583,0.888,3.837-0.694,5.036
								c-19.471,14.756-31.566,36.722-31.566,57.325v9.874c0,28.27,23.606,53.491,57.406,61.335c1.933,0.448,3.138,2.38,2.689,4.314
								C295.302,432.473,293.824,433.596,292.189,433.596z"/>
						</g>
					</g>
				</g>
			</g>
			<g>
				<g>
					<g>
						<g>
							<path class="st3" d="M610.725,608.17H598.39l1.415-5.008c0.436-1.544,0.714-3.066,0.826-4.523l7.852-0.002
								c0.112,1.458,0.391,2.981,0.827,4.525L610.725,608.17z"/>
						</g>
					</g>
				</g>
				<g>
					<g>
						<g>
							<path class="st3" d="M736.956,608.17h-12.333l1.415-5.008c0.436-1.544,0.714-3.066,0.826-4.523l7.852-0.002
								c0.112,1.458,0.391,2.98,0.827,4.526L736.956,608.17z"/>
						</g>
					</g>
				</g>
				<g>
					<g>
						<g>
							<path class="st3" d="M484.491,608.17h-12.335l1.415-5.008c0.436-1.543,0.715-3.066,0.827-4.525l7.852,0.002
								c0.112,1.457,0.39,2.979,0.826,4.523L484.491,608.17z"/>
						</g>
					</g>
				</g>
				<g>
					<g>
						<g>
							<path class="st8" d="M856.061,604.232"/>
						</g>
					</g>
				</g>
				<g>
					<g>
						<g>
							<path class="st3" d="M793.908,641.565c-32.271,0-60.005-15.25-65.942-36.261c-0.592-2.092,0.626-4.268,2.718-4.859
								c2.092-0.594,4.268,0.626,4.859,2.718c4.919,17.404,30.01,30.528,58.365,30.528s53.446-13.124,58.365-30.528
								c0.59-2.093,2.768-3.313,4.859-2.718c2.092,0.591,3.31,2.767,2.718,4.859C853.912,626.315,826.179,641.565,793.908,641.565z"
								/>
						</g>
					</g>
				</g>
				<g>
					<g>
						<g>
							<path class="st3" d="M667.674,641.565c-32.272,0-60.004-15.25-65.941-36.261c-0.592-2.092,0.625-4.268,2.718-4.859
								c2.088-0.594,4.268,0.626,4.86,2.718c4.918,17.404,30.009,30.528,58.364,30.528c28.356,0,53.447-13.124,58.365-30.528
								c0.59-2.093,2.77-3.313,4.859-2.718c2.092,0.591,3.31,2.767,2.719,4.859C727.679,626.315,699.946,641.565,667.674,641.565z"
								/>
						</g>
					</g>
				</g>
				<g>
					<g>
						<g>
							<path class="st3" d="M541.441,641.565c-32.272,0-60.005-15.25-65.942-36.261c-0.592-2.092,0.626-4.268,2.718-4.859
								c2.089-0.594,4.268,0.626,4.86,2.718c4.918,17.404,30.009,30.528,58.364,30.528c28.355,0,53.446-13.124,58.364-30.528
								c0.591-2.093,2.767-3.313,4.859-2.718c2.092,0.591,3.31,2.767,2.719,4.859C601.446,626.315,573.713,641.565,541.441,641.565z
								"/>
						</g>
					</g>
				</g>
				<g>
					<g>
						<g>
							<path class="st3" d="M415.208,641.565c-32.272,0-60.004-15.25-65.941-36.261c-0.592-2.092,0.626-4.268,2.718-4.859
								c2.09-0.594,4.268,0.626,4.86,2.718c4.918,17.404,30.009,30.528,58.364,30.528c28.355,0,53.446-13.124,58.364-30.528
								c0.591-2.093,2.765-3.313,4.86-2.718c2.092,0.591,3.31,2.767,2.718,4.859C475.212,626.315,447.48,641.565,415.208,641.565z"
								/>
						</g>
					</g>
				</g>
			</g>
			<g>
				<g>
					<g>
						<g>
							<path class="st9" d="M603.594,596.373h1.927c-0.489-1.73-0.825-3.493-0.963-5.292
								C604.419,592.88,604.083,594.643,603.594,596.373z"/>
						</g>
					</g>
				</g>
				<g>
					<g>
						<g>
							<path class="st9" d="M729.828,596.373h1.927c-0.489-1.73-0.825-3.493-0.963-5.292
								C730.653,592.88,730.316,594.643,729.828,596.373z"/>
						</g>
					</g>
				</g>
				<g>
					<g>
						<g>
							<path class="st9" d="M477.361,596.373h1.927c-0.489-1.73-0.825-3.493-0.963-5.292
								C478.186,592.88,477.85,594.643,477.361,596.373z"/>
						</g>
					</g>
				</g>
				<g>
					<g>
						<g>
							<path class="st10" d="M856.061,596.373"/>
						</g>
					</g>
				</g>
				<g>
					<g>
						<g>
							<path class="st6" d="M793.908,633.705c-32.271,0-60.005-15.25-65.942-36.261c-0.592-2.092,0.626-4.268,2.718-4.859
								c2.092-0.593,4.268,0.626,4.859,2.718c4.919,17.404,30.01,30.528,58.365,30.528s53.446-13.124,58.365-30.528
								c0.59-2.092,2.768-3.312,4.859-2.718c2.092,0.591,3.31,2.767,2.718,4.859C853.912,618.455,826.179,633.705,793.908,633.705z"
								/>
						</g>
					</g>
				</g>
				<g>
					<g>
						<g>
							<path class="st6" d="M667.674,633.705c-32.272,0-60.004-15.25-65.941-36.261c-0.592-2.092,0.625-4.268,2.718-4.859
								c2.088-0.593,4.268,0.626,4.86,2.718c4.918,17.404,30.009,30.528,58.364,30.528c28.356,0,53.447-13.124,58.365-30.528
								c0.59-2.092,2.77-3.312,4.859-2.718c2.092,0.591,3.31,2.767,2.719,4.859C727.679,618.455,699.946,633.705,667.674,633.705z"
								/>
						</g>
					</g>
				</g>
				<g>
					<g>
						<g>
							<path class="st6" d="M541.441,633.705c-32.272,0-60.005-15.25-65.942-36.261c-0.592-2.092,0.626-4.268,2.718-4.859
								c2.089-0.593,4.268,0.626,4.86,2.718c4.918,17.404,30.009,30.528,58.364,30.528c28.355,0,53.446-13.124,58.364-30.528
								c0.591-2.092,2.767-3.312,4.859-2.718c2.092,0.591,3.31,2.767,2.719,4.859C601.446,618.455,573.713,633.705,541.441,633.705z
								"/>
						</g>
					</g>
				</g>
				<g>
					<g>
						<g>
							<path class="st6" d="M415.208,633.705c-32.272,0-60.004-15.25-65.941-36.261c-0.592-2.092,0.626-4.268,2.718-4.859
								c2.09-0.593,4.268,0.626,4.86,2.718c4.918,17.404,30.009,30.528,58.364,30.528c28.355,0,53.446-13.124,58.364-30.528
								c0.591-2.092,2.765-3.312,4.86-2.718c2.092,0.591,3.31,2.767,2.718,4.859C475.212,618.455,447.48,633.705,415.208,633.705z"
								/>
						</g>
					</g>
				</g>
			</g>
			<g>
				<g>
					<g>
						<g>
							<g>
								<path class="st3" d="M610.725,513.857H598.39l1.415-5.008c0.436-1.544,0.714-3.066,0.826-4.523l7.852-0.002
									c0.112,1.458,0.391,2.981,0.827,4.525L610.725,513.857z"/>
							</g>
						</g>
					</g>
					<g>
						<g>
							<g>
								<path class="st3" d="M736.956,513.857h-12.333l1.415-5.008c0.436-1.544,0.714-3.066,0.826-4.523l7.852-0.002
									c0.112,1.458,0.391,2.98,0.827,4.526L736.956,513.857z"/>
							</g>
						</g>
					</g>
					<g>
						<g>
							<g>
								<path class="st3" d="M484.491,513.857h-12.335l1.415-5.008c0.436-1.543,0.715-3.066,0.827-4.525l7.852,0.002
									c0.112,1.457,0.39,2.979,0.826,4.523L484.491,513.857z"/>
							</g>
						</g>
					</g>
					<g>
						<g>
							<g>
								<path class="st8" d="M856.061,509.919"/>
							</g>
						</g>
					</g>
					<g>
						<g>
							<g>
								<path class="st3" d="M793.908,547.251c-32.271,0-60.005-15.25-65.942-36.261c-0.592-2.092,0.626-4.268,2.718-4.859
									c2.092-0.593,4.268,0.626,4.859,2.718c4.919,17.404,30.01,30.528,58.365,30.528s53.446-13.124,58.365-30.528
									c0.59-2.094,2.768-3.312,4.859-2.718c2.092,0.591,3.31,2.767,2.718,4.859C853.912,532.001,826.179,547.251,793.908,547.251z
									"/>
							</g>
						</g>
					</g>
					<g>
						<g>
							<g>
								<path class="st3" d="M667.674,547.251c-32.272,0-60.004-15.25-65.941-36.261c-0.592-2.092,0.625-4.268,2.718-4.859
									c2.088-0.593,4.268,0.626,4.86,2.718c4.918,17.404,30.009,30.528,58.364,30.528c28.356,0,53.447-13.124,58.365-30.528
									c0.59-2.094,2.77-3.312,4.859-2.718c2.092,0.591,3.31,2.767,2.719,4.859C727.679,532.001,699.946,547.251,667.674,547.251z"
									/>
							</g>
						</g>
					</g>
					<g>
						<g>
							<g>
								<path class="st3" d="M541.441,547.251c-32.272,0-60.005-15.25-65.942-36.261c-0.592-2.092,0.626-4.268,2.718-4.859
									c2.089-0.593,4.268,0.626,4.86,2.718c4.918,17.404,30.009,30.528,58.364,30.528c28.355,0,53.446-13.124,58.364-30.528
									c0.591-2.094,2.767-3.312,4.859-2.718c2.092,0.591,3.31,2.767,2.719,4.859C601.446,532.001,573.713,547.251,541.441,547.251
									z"/>
							</g>
						</g>
					</g>
					<g>
						<g>
							<g>
								<path class="st3" d="M415.208,547.251c-32.272,0-60.004-15.25-65.941-36.261c-0.592-2.092,0.626-4.268,2.718-4.859
									c2.09-0.593,4.268,0.626,4.86,2.718c4.918,17.404,30.009,30.528,58.364,30.528c28.355,0,53.446-13.124,58.364-30.528
									c0.591-2.094,2.765-3.312,4.86-2.718c2.092,0.591,3.31,2.767,2.718,4.859C475.212,532.001,447.48,547.251,415.208,547.251z"
									/>
							</g>
						</g>
					</g>
				</g>
				<g>
					<g>
						<g>
							<path class="st9" d="M603.594,502.059h1.927c-0.489-1.73-0.825-3.493-0.963-5.292
								C604.419,498.566,604.083,500.33,603.594,502.059z"/>
						</g>
					</g>
				</g>
				<g>
					<g>
						<g>
							<path class="st9" d="M729.828,502.059h1.927c-0.489-1.73-0.825-3.493-0.963-5.292
								C730.653,498.566,730.316,500.33,729.828,502.059z"/>
						</g>
					</g>
				</g>
				<g>
					<g>
						<g>
							<path class="st9" d="M477.361,502.059h1.927c-0.489-1.73-0.825-3.493-0.963-5.292
								C478.186,498.566,477.85,500.33,477.361,502.059z"/>
						</g>
					</g>
				</g>
				<g>
					<g>
						<g>
							<path class="st10" d="M856.061,502.059"/>
						</g>
					</g>
				</g>
				<g>
					<g>
						<g>
							<path class="st6" d="M793.908,539.391c-32.271,0-60.005-15.25-65.942-36.261c-0.592-2.092,0.626-4.268,2.718-4.859
								c2.092-0.593,4.268,0.625,4.859,2.718c4.919,17.404,30.01,30.528,58.365,30.528s53.446-13.124,58.365-30.528
								c0.59-2.093,2.768-3.311,4.859-2.718c2.092,0.591,3.31,2.767,2.718,4.859C853.912,524.141,826.179,539.391,793.908,539.391z"
								/>
						</g>
					</g>
				</g>
				<g>
					<g>
						<g>
							<path class="st6" d="M667.674,539.391c-32.272,0-60.004-15.25-65.941-36.261c-0.592-2.092,0.625-4.268,2.718-4.859
								c2.088-0.593,4.268,0.625,4.86,2.718c4.918,17.404,30.009,30.528,58.364,30.528c28.356,0,53.447-13.124,58.365-30.528
								c0.59-2.093,2.77-3.311,4.859-2.718c2.092,0.591,3.31,2.767,2.719,4.859C727.679,524.141,699.946,539.391,667.674,539.391z"
								/>
						</g>
					</g>
				</g>
				<g>
					<g>
						<g>
							<path class="st6" d="M541.441,539.391c-32.272,0-60.005-15.25-65.942-36.261c-0.592-2.092,0.626-4.268,2.718-4.859
								c2.089-0.593,4.268,0.625,4.86,2.718c4.918,17.404,30.009,30.528,58.364,30.528c28.355,0,53.446-13.124,58.364-30.528
								c0.591-2.093,2.767-3.311,4.859-2.718c2.092,0.591,3.31,2.767,2.719,4.859C601.446,524.141,573.713,539.391,541.441,539.391z
								"/>
						</g>
					</g>
				</g>
				<g>
					<g>
						<g>
							<path class="st6" d="M415.208,539.391c-32.272,0-60.004-15.25-65.941-36.261c-0.592-2.092,0.626-4.268,2.718-4.859
								c2.09-0.593,4.268,0.625,4.86,2.718c4.918,17.404,30.009,30.528,58.364,30.528c28.355,0,53.446-13.124,58.364-30.528
								c0.591-2.093,2.765-3.311,4.86-2.718c2.092,0.591,3.31,2.767,2.718,4.859C475.212,524.141,447.48,539.391,415.208,539.391z"
								/>
						</g>
					</g>
				</g>
			</g>
			<g>
				<g>
					<g>
						<path class="st6" d="M612.531,437.211c-2.171,0-3.93-1.759-3.93-3.93V148.068c0-2.171,1.759-3.93,3.93-3.93
							c2.171,0,3.93,1.759,3.93,3.93v285.213C616.461,435.451,614.702,437.211,612.531,437.211z"/>
					</g>
				</g>
			</g>
			<g>
				<g>
					<g>
						<g>
							<path class="st7" d="M261.727,348.52c5.057,0,5.066-7.859,0-7.859C256.67,340.66,256.662,348.52,261.727,348.52
								L261.727,348.52z"/>
						</g>
					</g>
				</g>
			</g>
			<g>
				<g>
					<g>
						<g>
							<path class="st5" d="M267.804,359.523c15.172,0,15.197-23.578,0-23.578C252.633,335.945,252.608,359.523,267.804,359.523
								L267.804,359.523z"/>
						</g>
					</g>
				</g>
			</g>
			<g>
				<g>
					<g>
						<g>
							<path class="st3" d="M386.874,351.205c25.286,0,25.328-39.297,0-39.297C361.587,311.908,361.546,351.205,386.874,351.205
								L386.874,351.205z"/>
						</g>
					</g>
				</g>
			</g>
			<g>
				<g>
					<g>
						<path class="st6" d="M856.232,704.433H352.884c-2.171,0-3.93-1.759-3.93-3.93V433.281c0-2.171,1.759-3.93,3.93-3.93h431.844
							c41.595,0,75.434,33.84,75.434,75.434v195.718C860.161,702.674,858.402,704.433,856.232,704.433z M356.813,696.573h495.489
							V504.785c0-37.261-30.313-67.575-67.575-67.575H356.813V696.573z"/>
					</g>
				</g>
			</g>
			<g>
				<g>
					<g>
						<path class="st6" d="M250.284,409.712c-0.838,0-1.649-0.448-2.076-1.237c-0.619-1.145-0.193-2.576,0.952-3.195l30.109-16.285
							c1.144-0.621,2.575-0.193,3.195,0.952c0.619,1.145,0.193,2.576-0.953,3.195l-30.109,16.285
							C251.047,409.62,250.663,409.712,250.284,409.712z"/>
					</g>
				</g>
			</g>
			<g>
				<g>
					<g>
						<g>
							<path class="st6" d="M266.233,356.379c15.172,0,15.197-23.578,0-23.578C251.061,332.801,251.036,356.379,266.233,356.379
								L266.233,356.379z"/>
						</g>
					</g>
				</g>
			</g>
			<g>
				<g>
					<g>
						<g>
							<path class="st6" d="M383.73,346.49c25.286,0,25.328-39.297,0-39.297C358.444,307.192,358.402,346.49,383.73,346.49
								L383.73,346.49z"/>
						</g>
					</g>
				</g>
			</g>
		</g>
	</g>
	<g>
		<circle class="st3" cx="694.761" cy="609.129" r="55.016"/>
		<circle class="st11" cx="694.761" cy="609.129" r="55.016"/>
		<circle class="st3" cx="694.761" cy="609.129" r="39.665"/>
		<path class="st2" d="M664.899,610.172c-0.707-20.236,13.878-37.449,33.378-40.543c-1.61-0.141-3.244-0.198-4.9-0.14
			c-21.893,0.765-39.021,19.132-38.256,41.025c0.765,21.893,19.132,39.021,41.025,38.256c1.657-0.058,3.282-0.228,4.878-0.482
			C681.355,646.562,665.606,630.408,664.899,610.172z"/>
		<path class="st0" d="M725.393,608.06c-0.707-20.236-16.456-36.389-36.125-38.116c1.596-0.253,3.222-0.424,4.878-0.482
			c21.893-0.765,40.26,16.363,41.025,38.256c0.765,21.893-16.364,40.261-38.256,41.025c-1.657,0.058-3.29,0.001-4.9-0.14
			C711.515,645.508,726.1,628.296,725.393,608.06z"/>
		<circle class="st12" cx="694.761" cy="609.129" r="39.665"/>
		<path class="st13" d="M670.404,598.786c2.797-9.834,11.677-17.188,22.445-17.564"/>
		<g>
			<g>
				<line class="st12" x1="692.841" y1="554.147" x2="693.377" y2="569.489"/>
				<line class="st12" x1="696.178" y1="649.707" x2="696.681" y2="664.112"/>
				<g>
					<line class="st12" x1="749.744" y1="607.209" x2="734.402" y2="607.745"/>
					<line class="st12" x1="654.184" y1="610.546" x2="639.778" y2="611.049"/>
				</g>
			</g>
			<g>
				<line class="st12" x1="732.282" y1="568.893" x2="721.813" y2="580.12"/>
				<line class="st12" x1="667.071" y1="638.824" x2="657.24" y2="649.366"/>
				<g>
					<line class="st12" x1="734.998" y1="646.65" x2="723.77" y2="636.181"/>
					<line class="st12" x1="665.067" y1="581.439" x2="654.525" y2="571.608"/>
				</g>
			</g>
		</g>
		<g>
			<g>
				<line class="st12" x1="714.298" y1="557.699" x2="708.847" y2="572.05"/>
				<line class="st12" x1="680.343" y1="647.085" x2="675.224" y2="660.56"/>
				<g>
					<line class="st12" x1="746.192" y1="628.666" x2="731.841" y2="623.215"/>
					<line class="st12" x1="656.805" y1="594.711" x2="643.331" y2="589.593"/>
				</g>
			</g>
			<g>
				<line class="st12" x1="744.943" y1="586.577" x2="730.94" y2="592.87"/>
				<line class="st12" x1="657.727" y1="625.773" x2="644.58" y2="631.682"/>
				<g>
					<line class="st12" x1="717.314" y1="659.311" x2="711.021" y2="645.309"/>
					<line class="st12" x1="678.117" y1="572.095" x2="672.209" y2="558.948"/>
				</g>
			</g>
		</g>
	</g>
	<g>
		<g>
			<path class="st14" d="M596.507,782.296c-3.76,2.171-8.566,0.883-10.736-2.877l-65.865-114.081
				c-2.171-3.76-0.883-8.566,2.877-10.736c3.76-2.171,8.566-0.883,10.736,2.877l65.865,114.081
				C601.554,775.32,600.267,780.126,596.507,782.296z"/>
		</g>
		<g>
			<path class="st11" d="M596.507,782.296c-3.76,2.171-8.566,0.883-10.736-2.877l-65.865-114.081
				c-2.171-3.76-0.883-8.566,2.877-10.736c3.76-2.171,8.566-0.883,10.736,2.877l65.865,114.081
				C601.554,775.32,600.267,780.126,596.507,782.296z"/>
		</g>
		<circle class="st4" cx="500.159" cy="615.417" r="55.016"/>
		<path class="st5" d="M495.307,560.615c13.586,3.65,25.782,12.478,33.372,25.624c15.192,26.314,6.177,59.961-20.137,75.154
			c-7.18,4.146-14.907,6.476-22.656,7.157c13.609,3.656,28.614,2.116,41.782-5.486c26.314-15.192,35.33-48.84,20.137-75.154
			C536.758,568.775,515.954,558.8,495.307,560.615z"/>
		<path class="st13" d="M479.332,651.491c-19.923-11.503-26.75-36.979-15.247-56.902"/>
		<circle class="st11" cx="500.159" cy="615.417" r="55.016"/>
		<path class="st4" d="M551.354,608.548l-82.74,47.77c-4.593,2.652-10.467,1.078-13.119-3.515l-10.045-17.398
			c-2.652-4.594-1.078-10.467,3.515-13.119l82.74-47.77c4.594-2.652,10.467-1.078,13.119,3.515l10.045,17.398
			C557.521,600.022,555.947,605.896,551.354,608.548z"/>
		<path class="st5" d="M531.705,574.516l-20.432,11.796c4.593-2.652,10.467-1.078,13.119,3.515l10.045,17.398
			c2.652,4.594,1.078,10.467-3.515,13.119l20.432-11.796c4.594-2.652,6.167-8.526,3.515-13.119l-10.045-17.398
			C542.172,573.437,536.299,571.863,531.705,574.516z"/>
		<path class="st11" d="M551.354,608.548l-82.74,47.77c-4.593,2.652-10.467,1.078-13.119-3.515l-10.045-17.398
			c-2.652-4.594-1.078-10.467,3.515-13.119l82.74-47.77c4.594-2.652,10.467-1.078,13.119,3.515l10.045,17.398
			C557.521,600.022,555.947,605.896,551.354,608.548z"/>
		<line class="st13" x1="458.77" y1="631.154" x2="465.902" y2="643.507"/>
	</g>
	<g>
		<circle class="st3" cx="531.266" cy="452.302" r="39.287"/>
		<path class="st13" d="M507.229,455.841c-1.657-11.176,4.698-22.35,15.729-26.365"/>
		<circle class="st11" cx="531.266" cy="452.302" r="39.287"/>
	</g>
	<g>
		<path class="st2" d="M268.813,691.763L268.813,691.763c-12.733,0-23.054-10.322-23.054-23.054v0
			c0-12.733,10.322-23.054,23.054-23.054h0c12.733,0,23.054,10.322,23.054,23.054v0
			C291.868,681.441,281.546,691.763,268.813,691.763z"/>
		<path class="st11" d="M268.813,691.763L268.813,691.763c-12.733,0-23.054-10.322-23.054-23.054v0
			c0-12.733,10.322-23.054,23.054-23.054h0c12.733,0,23.054,10.322,23.054,23.054v0
			C291.868,681.441,281.546,691.763,268.813,691.763z"/>
	</g>
	<g>
		<path class="st4" d="M859.518,495.58l12.897,17.578c0.837,1.14,2.181,1.796,3.595,1.753l21.792-0.659
			c3.56-0.108,5.699,3.914,3.619,6.805l-12.732,17.698c-0.826,1.148-1.034,2.629-0.557,3.961l7.361,20.522
			c1.203,3.353-1.961,6.629-5.354,5.544l-20.766-6.64c-1.347-0.431-2.82-0.171-3.939,0.695l-17.243,13.342
			c-2.817,2.18-6.911,0.183-6.928-3.379l-0.102-21.802c-0.007-1.414-0.709-2.735-1.878-3.531l-18.018-12.276
			c-2.944-2.006-2.31-6.516,1.073-7.633l20.703-6.834c1.343-0.443,2.382-1.519,2.778-2.877l6.107-20.929
			C852.925,493.499,857.411,492.708,859.518,495.58z"/>
		<path class="st11" d="M859.518,495.58l12.897,17.578c0.837,1.14,2.181,1.796,3.595,1.753l21.792-0.659
			c3.56-0.108,5.699,3.914,3.619,6.805l-12.732,17.698c-0.826,1.148-1.034,2.629-0.557,3.961l7.361,20.522
			c1.203,3.353-1.961,6.629-5.354,5.544l-20.766-6.64c-1.347-0.431-2.82-0.171-3.939,0.695l-17.243,13.342
			c-2.817,2.18-6.911,0.183-6.928-3.379l-0.102-21.802c-0.007-1.414-0.709-2.735-1.878-3.531l-18.018-12.276
			c-2.944-2.006-2.31-6.516,1.073-7.633l20.703-6.834c1.343-0.443,2.382-1.519,2.778-2.877l6.107-20.929
			C852.925,493.499,857.411,492.708,859.518,495.58z"/>
	</g>
	<g>
		<g>
			<path class="st14" d="M651.837,490.662c-3.326-2.79-3.759-7.747-0.969-11.073l74.564-88.862c2.79-3.326,7.747-3.759,11.073-0.969
				s3.759,7.747,0.969,11.073l-74.564,88.862C660.119,493.019,655.162,493.452,651.837,490.662z"/>
		</g>
		<g>
			<path class="st11" d="M651.837,490.662c-3.326-2.79-3.759-7.747-0.969-11.073l74.564-88.862c2.79-3.326,7.747-3.759,11.073-0.969
				s3.759,7.747,0.969,11.073l-74.564,88.862C660.119,493.019,655.162,493.452,651.837,490.662z"/>
		</g>
		<circle class="st4" cx="773.684" cy="345.449" r="65.701"/>
		<path class="st13" d="M759.955,328.798c6.138-7.315,17.045-8.27,24.36-2.131"/>
		<path class="st13" d="M733.948,312.106c18.415-21.946,51.134-24.809,73.08-6.394"/>
		<circle class="st11" cx="773.684" cy="345.449" r="65.701"/>
		<path class="st12" d="M709.361,343.657c3.749,29.852,31.116,51.053,61.017,47.266c11.857-1.512,22.418-7.539,29.735-16.967
			c7.337-9.43,10.546-21.142,9.058-32.972c-1.214-9.732-6.156-18.395-13.907-24.402c-7.752-6.011-17.386-8.637-27.139-7.392
			c-16.63,2.115-28.466,17.342-26.377,33.951c1.735,13.837,14.427,23.658,28.273,21.898"/>
	</g>
	<g>
		<circle class="st2" cx="684.881" cy="752.254" r="22.4"/>
		<path class="st2" d="M633.265,749.983l30.567-5.39l-19.951-23.777c-2.654,7.292-6.022,6.066-8.676,13.357
			C632.551,741.465,635.919,742.691,633.265,749.983z"/>
		<path class="st3" d="M725.881,783.692l-19.951-23.777l30.567-5.39c-2.654,7.292,0.714,8.517-1.94,15.809
			C731.903,777.626,728.535,776.401,725.881,783.692z"/>
		<path class="st3" d="M704.746,741.908c-6.667,14.855-23.772,22.261-39.316,16.604c-0.792-0.288-1.559-0.613-2.313-0.957
			c1.718,7.025,6.797,13.089,14.102,15.748c11.625,4.231,24.479-1.763,28.71-13.388
			C708.166,753.771,707.545,747.284,704.746,741.908z"/>
		<path class="st13" d="M677.078,743.393c2.456-1.914,5.464-3.049,8.605-3.21"/>
		<circle class="st11" cx="684.881" cy="752.254" r="22.4"/>
		<path class="st11" d="M633.265,749.983l30.567-5.39l-19.951-23.777c-2.654,7.292-6.022,6.066-8.676,13.357
			C632.551,741.465,635.919,742.691,633.265,749.983z"/>
		<path class="st11" d="M725.881,783.692l-19.951-23.777l30.567-5.39c-2.654,7.292,0.714,8.517-1.94,15.809
			C731.903,777.626,728.535,776.401,725.881,783.692z"/>
		<path class="st12" d="M704.746,741.908c-6.667,14.855-23.772,22.261-39.316,16.604c-0.792-0.288-1.559-0.613-2.313-0.957
			c1.718,7.025,6.797,13.089,14.102,15.748c11.625,4.231,24.479-1.763,28.71-13.388
			C708.166,753.771,707.545,747.284,704.746,741.908z"/>
	</g>
	<g>
		<circle class="st2" cx="362.429" cy="493.531" r="22.4"/>
		<path class="st2" d="M324.246,528.337l17.86-25.385l-30.914-2.775c3.264,7.04,0.012,8.547,3.275,15.587
			C317.731,522.804,320.983,521.297,324.246,528.337z"/>
		<path class="st3" d="M413.665,486.884l-30.914-2.775l17.86-25.385c3.264,7.04,6.515,5.533,9.779,12.572
			C413.653,478.337,410.402,479.845,413.665,486.884z"/>
		<path class="st3" d="M369.208,472.183c5.756,15.231-1.141,32.548-16.149,39.505c-0.764,0.354-1.538,0.665-2.314,0.954
			c6.173,3.766,14.052,4.481,21.105,1.211c11.224-5.203,16.105-18.52,10.901-29.743
			C380.001,478.178,374.984,474.019,369.208,472.183z"/>
		<path class="st13" d="M350.647,492.756c0.39-3.089,1.721-6.016,3.834-8.346"/>
		<circle class="st11" cx="362.429" cy="493.531" r="22.4"/>
		<path class="st11" d="M324.246,528.337l17.86-25.385l-30.914-2.775c3.264,7.04,0.012,8.547,3.275,15.587
			C317.731,522.804,320.983,521.297,324.246,528.337z"/>
		<path class="st11" d="M413.665,486.884l-30.914-2.775l17.86-25.385c3.264,7.04,6.515,5.533,9.779,12.572
			C413.653,478.337,410.402,479.845,413.665,486.884z"/>
		<path class="st12" d="M369.208,472.183c5.756,15.231-1.141,32.548-16.149,39.505c-0.764,0.354-1.538,0.665-2.314,0.954
			c6.173,3.766,14.052,4.481,21.105,1.211c11.224-5.203,16.105-18.52,10.901-29.743
			C380.001,478.178,374.984,474.019,369.208,472.183z"/>
	</g>
	<g>
		<path class="st3" d="M507.869,795.685l-28.812-10.487c-4.28-1.558-6.487-6.291-4.929-10.571l10.487-28.812
			c1.558-4.28,6.291-6.487,10.571-4.929l28.812,10.487c4.28,1.558,6.487,6.291,4.929,10.571l-10.487,28.812
			C516.882,795.036,512.149,797.243,507.869,795.685z"/>
		<path class="st12" d="M507.869,795.685l-28.812-10.487c-4.28-1.558-6.487-6.291-4.929-10.571l10.487-28.812
			c1.558-4.28,6.291-6.487,10.571-4.929l28.812,10.487c4.28,1.558,6.487,6.291,4.929,10.571l-10.487,28.812
			C516.882,795.036,512.149,797.243,507.869,795.685z"/>
		<circle class="st14" cx="501.527" cy="768.285" r="4.217"/>
		<circle class="st14" cx="495.728" cy="755.849" r="4.217"/>
		<circle class="st14" cx="507.326" cy="780.722" r="4.217"/>
	</g>
	<g>
		
			<rect x="877.045" y="342.089" transform="matrix(0.9232 -0.3844 0.3844 0.9232 -68.9473 370.6604)" class="st2" width="31.438" height="31.438"/>
		<polygon class="st3" points="913.317,366.277 901.093,337.594 892.694,357.978 		"/>
		
			<rect x="877.045" y="342.089" transform="matrix(0.9232 -0.3844 0.3844 0.9232 -68.9473 370.6604)" class="st12" width="31.438" height="31.438"/>
		<line class="st12" x1="913.077" y1="366.377" x2="872.31" y2="349.579"/>
		<line class="st12" x1="884.295" y1="378.361" x2="901.093" y2="337.594"/>
	</g>
	<g>
		
			<rect x="540.438" y="808.726" transform="matrix(0.6428 -0.766 0.766 0.6428 -432.8954 720.5433)" class="st2" width="31.438" height="31.438"/>
		<polygon class="st3" points="578.303,822.508 554.252,802.666 556.173,824.629 		"/>
		
			<rect x="540.438" y="808.726" transform="matrix(0.6428 -0.766 0.766 0.6428 -432.8954 720.5433)" class="st12" width="31.438" height="31.438"/>
		<line class="st12" x1="578.135" y1="822.707" x2="534.211" y2="826.55"/>
		<line class="st12" x1="558.095" y1="846.591" x2="554.252" y2="802.666"/>
	</g>
	<g>
		<g>
			<g>
				<g>
					<g>
						<path class="st14" d="M722.73,193.078c-1.302,0-2.358-1.055-2.358-2.358v-11.772c0-1.303,1.055-2.358,2.358-2.358
							s2.358,1.055,2.358,2.358v11.772C725.087,192.022,724.032,193.078,722.73,193.078z"/>
					</g>
				</g>
			</g>
			<g>
				<g>
					<g>
						<path class="st14" d="M722.73,221.389c-1.302,0-2.358-1.055-2.358-2.358v-11.772c0-1.302,1.055-2.358,2.358-2.358
							s2.358,1.055,2.358,2.358v11.772C725.087,220.333,724.032,221.389,722.73,221.389z"/>
					</g>
				</g>
			</g>
			<g>
				<g>
					<g>
						<path class="st14" d="M742.771,201.347h-11.772c-1.302,0-2.358-1.055-2.358-2.358s1.055-2.358,2.358-2.358h11.772
							c1.302,0,2.358,1.055,2.358,2.358S744.074,201.347,742.771,201.347z"/>
					</g>
				</g>
			</g>
			<g>
				<g>
					<g>
						<path class="st14" d="M714.46,201.347h-11.772c-1.302,0-2.358-1.055-2.358-2.358s1.055-2.358,2.358-2.358h11.772
							c1.302,0,2.358,1.055,2.358,2.358S715.763,201.347,714.46,201.347z"/>
					</g>
				</g>
			</g>
		</g>
		<g>
			<g>
				<g>
					<g>
						<circle class="st14" cx="901.409" cy="449.576" r="3.93"/>
					</g>
				</g>
			</g>
			<g>
				<g>
					<g>
						<circle class="st14" cx="901.409" cy="465.295" r="3.93"/>
					</g>
				</g>
			</g>
			<g>
				<g>
					<g>
						<circle class="st14" cx="901.409" cy="433.857" r="3.93"/>
					</g>
				</g>
			</g>
			<g>
				<g>
					<g>
						<circle class="st14" cx="885.69" cy="449.576" r="3.93"/>
					</g>
				</g>
			</g>
			<g>
				<g>
					<g>
						<circle class="st14" cx="917.128" cy="449.576" r="3.93"/>
					</g>
				</g>
			</g>
		</g>
		<g>
			<g>
				<g>
					<path class="st14" d="M273.917,739.205l6.288,8.048l9.597-3.493l-5.711,8.467l6.288,8.048l-9.818-2.815l-5.711,8.467
						l-0.356-10.207l-9.818-2.815l9.597-3.493L273.917,739.205 M289.802,743.76h0.008 M273.916,734.489
						c-0.539,0-1.084,0.093-1.612,0.285c-1.92,0.699-3.171,2.554-3.1,4.596l0.237,6.783l-6.378,2.321
						c-1.92,0.699-3.171,2.554-3.1,4.596s1.449,3.805,3.413,4.368l6.524,1.87l0.237,6.783c0.071,2.042,1.449,3.805,3.413,4.368
						c0.43,0.123,0.868,0.183,1.3,0.183c1.54,0,3.017-0.756,3.91-2.079l3.795-5.626l6.524,1.87c0.43,0.124,0.867,0.183,1.3,0.183
						c1.54,0,3.018-0.756,3.91-2.079c1.142-1.694,1.064-3.93-0.194-5.54l-4.178-5.348l3.711-5.501
						c0.563-0.776,0.895-1.731,0.895-2.762c0-2.561-2.038-4.646-4.583-4.714c-0.046-0.002-0.092-0.002-0.138-0.002
						c-0.153,0-0.307,0.008-0.461,0.023c-0.438,0.043-0.858,0.145-1.253,0.299l-6.275,2.284l-4.179-5.349
						C276.721,735.135,275.339,734.489,273.916,734.489L273.916,734.489z"/>
				</g>
			</g>
		</g>
		<g>
			<g>
				<g>
					<path class="st14" d="M904.573,663.697c0.83-4.568-2.2-8.943-6.768-9.772c-4.567-0.83-8.943,2.2-9.772,6.768
						c-0.376,2.067-0.021,4.132,1.029,5.773c2.815,4.396,11.891,17.165,11.891,17.165s12.985-8.762,17.167-11.887
						c1.561-1.166,2.619-2.974,2.994-5.041c0.83-4.568-2.2-8.943-6.768-9.772C909.778,656.098,905.402,659.129,904.573,663.697z"/>
				</g>
			</g>
		</g>
		<g>
			<g>
				<g>
					<circle class="st14" cx="244.499" cy="470.01" r="3.93"/>
				</g>
			</g>
		</g>
		<g>
			<g>
				<g>
					<circle class="st14" cx="347.149" cy="231.534" r="3.93"/>
				</g>
			</g>
		</g>
		<g>
			<g>
				<g>
					<circle class="st14" cx="559.811" cy="215.101" r="3.93"/>
				</g>
			</g>
		</g>
		<g>
			<g>
				<g>
					<circle class="st14" cx="873.387" cy="295.403" r="3.93"/>
				</g>
			</g>
		</g>
		<g>
			<g>
				<g>
					<circle class="st14" cx="747.353" cy="810.229" r="3.93"/>
				</g>
			</g>
		</g>
		<g>
			<g>
				<g>
					<circle class="st14" cx="445.134" cy="835.243" r="3.93"/>
				</g>
			</g>
		</g>
		<g>
			<g>
				<g>
					<path class="st14" d="M614.991,818.089c4.723,0,9.223-0.957,13.316-2.688c12.278-5.193,20.894-17.351,20.894-31.521
						c0,18.894,15.316,34.21,34.21,34.21c-9.263,0-17.666,3.681-23.826,9.661c-6.404,6.217-10.384,14.918-10.384,24.549
						C649.201,833.405,633.884,818.089,614.991,818.089z"/>
				</g>
			</g>
		</g>
		<g>
			<g>
				<g>
					<g>
						<g>
							<path class="st14" d="M260.181,561.255c-1.302,0-2.358-1.055-2.358-2.358v-32.357c0-1.303,1.055-2.358,2.358-2.358
								s2.358,1.055,2.358,2.358v32.357C262.539,560.2,261.483,561.255,260.181,561.255z"/>
						</g>
					</g>
				</g>
				<g>
					<g>
						<g>
							<path class="st14" d="M260.181,623.212c-1.302,0-2.358-1.055-2.358-2.358v-31.511c0-1.302,1.055-2.358,2.358-2.358
								s2.358,1.055,2.358,2.358v31.511C262.539,622.157,261.483,623.212,260.181,623.212z"/>
						</g>
					</g>
				</g>
				<g>
					<g>
						<g>
							<g>
								<path class="st14" d="M307.338,576.055h-32.357c-1.302,0-2.358-1.055-2.358-2.358c0-1.302,1.055-2.358,2.358-2.358h32.357
									c1.302,0,2.358,1.055,2.358,2.358C309.696,575,308.64,576.055,307.338,576.055z"/>
							</g>
						</g>
					</g>
					<g>
						<g>
							<g>
								<path class="st14" d="M244.536,576.055h-31.512c-1.303,0-2.358-1.055-2.358-2.358c0-1.302,1.055-2.358,2.358-2.358h31.512
									c1.302,0,2.358,1.055,2.358,2.358C246.894,575,245.838,576.055,244.536,576.055z"/>
							</g>
						</g>
					</g>
				</g>
			</g>
			<g>
				<g>
					<g>
						<g>
							<path class="st14" d="M282.931,598.806c-0.603,0-1.207-0.23-1.667-0.691l-9.791-9.791c-0.921-0.92-0.921-2.414,0-3.334
								c0.921-0.921,2.413-0.921,3.334,0l9.791,9.791c0.921,0.92,0.921,2.414,0,3.334
								C284.138,598.575,283.534,598.806,282.931,598.806z"/>
						</g>
					</g>
				</g>
				<g>
					<g>
						<g>
							<path class="st14" d="M246.624,562.499c-0.603,0-1.207-0.23-1.667-0.691l-9.193-9.193c-0.921-0.92-0.921-2.414,0-3.334
								c0.921-0.921,2.413-0.921,3.334,0l9.193,9.193c0.921,0.92,0.921,2.414,0,3.334
								C247.831,562.268,247.227,562.499,246.624,562.499z"/>
						</g>
					</g>
				</g>
				<g>
					<g>
						<g>
							<g>
								<path class="st14" d="M237.431,598.806c-0.603,0-1.207-0.23-1.667-0.691c-0.921-0.92-0.921-2.414,0-3.334l9.791-9.791
									c0.921-0.921,2.413-0.921,3.334,0c0.921,0.92,0.921,2.414,0,3.334l-9.791,9.791
									C238.637,598.575,238.034,598.806,237.431,598.806z"/>
							</g>
						</g>
					</g>
				</g>
			</g>
			<g>
				<g>
					<g>
						<g>
							<path class="st14" d="M273.14,563.096c-0.603,0-1.207-0.23-1.667-0.691c-0.921-0.92-0.921-2.414,0-3.334l9.791-9.791
								c0.921-0.921,2.413-0.921,3.334,0c0.921,0.92,0.921,2.414,0,3.334l-9.791,9.791
								C274.346,562.866,273.743,563.096,273.14,563.096z"/>
						</g>
					</g>
				</g>
				<g>
					<g>
						<g>
							<path class="st14" d="M237.431,598.806c-0.603,0-1.207-0.23-1.667-0.691c-0.921-0.92-0.921-2.414,0-3.334l9.193-9.193
								c0.921-0.921,2.413-0.921,3.334,0c0.921,0.92,0.921,2.414,0,3.334l-9.193,9.193
								C238.637,598.575,238.034,598.806,237.431,598.806z"/>
						</g>
					</g>
				</g>
			</g>
		</g>
		<g>
			<g>
				<g>
					<path class="st14" d="M547.447,341.135c-4.604,4.604-10.638,6.906-16.672,6.906c-6.034,0-12.068-2.302-16.673-6.906
						c4.544,4.544,6.845,10.48,6.905,16.435c0.061,6.113-2.241,12.245-6.905,16.91c2.302-2.302,4.962-4.028,7.8-5.179
						c8.515-3.453,18.639-1.727,25.545,5.179C538.239,365.272,538.239,350.343,547.447,341.135z"/>
				</g>
			</g>
		</g>
	</g>
	<g>
		<g>
			<g>
				<g>
					<path class="st2" d="M645.715,189.575c-11.007-23.604-39.064-33.816-62.668-22.809c-10.948,5.105-19.009,13.882-23.414,24.177
						c-10.719-3.243-22.623-2.71-33.571,2.395c-23.604,11.007-33.816,39.064-22.809,62.668c0.002,0.005,0.005,0.009,0.005,0.009
						l0.002,0.005c18.833,40.368,65.23,59.572,108.845,47.447c37.323-25.617,52.436-73.503,33.617-113.878l0,0L645.715,189.575z"/>
				</g>
			</g>
		</g>
		<g>
			<g>
				<g>
					<g>
						<path class="st3" d="M645.715,189.575c-11.007-23.604-39.064-33.816-62.668-22.809c-4.19,1.954-7.952,4.448-11.252,7.356
							c22.388-7.398,47.268,2.961,57.478,24.856l0.006,0.014l0,0c17.034,36.546,6.264,79.245-23.611,106.013
							c2.149-0.445,4.295-0.942,6.435-1.537c37.323-25.617,52.435-73.503,33.617-113.878l-0.001,0L645.715,189.575z"/>
					</g>
				</g>
			</g>
		</g>
		<g>
			<g>
				<g>
					<path class="st2" d="M626.398,315.525l-14.246,6.643c-3.934,1.834-8.61,0.132-10.445-3.802v0
						c-1.834-3.934-0.132-8.61,3.802-10.445l14.246-6.643c3.934-1.834,8.61-0.132,10.445,3.802v0
						C632.034,309.014,630.333,313.69,626.398,315.525z"/>
				</g>
			</g>
		</g>
		<g>
			<g>
				<g>
					<path class="st3" d="M626.398,315.525l-7.114,3.317l-6.643-14.246l7.114-3.317c3.934-1.834,8.61-0.132,10.445,3.802v0
						C632.034,309.014,630.333,313.69,626.398,315.525z"/>
				</g>
			</g>
		</g>
		<g>
			<g>
				<g>
					<path class="st6" d="M585.632,311.038c-36.639,0-70.376-20.01-85.933-53.356c-5.774-12.382-6.38-26.256-1.712-39.079
						c4.667-12.822,14.048-23.06,26.415-28.827c10.371-4.836,21.99-6.037,33.067-3.475c5.159-10.133,13.547-18.261,23.918-23.097
						c25.529-11.907,55.985-0.82,67.89,24.71c0.021,0.045,0.041,0.091,0.061,0.136l0.006,0.015
						c19.335,41.476,4.634,91.429-35.015,118.643c-0.358,0.246-0.753,0.431-1.171,0.546
						C603.96,309.81,594.705,311.038,585.632,311.038z M545.971,192.848c-6.253,0-12.478,1.361-18.248,4.051
						c-10.464,4.88-18.402,13.542-22.352,24.393c-3.949,10.85-3.436,22.588,1.443,33.053c17.698,37.933,61.186,56.994,103.605,45.51
						c36.063-25.111,49.417-70.679,31.74-108.606l3.556-1.674l-3.561,1.661c-10.074-21.602-35.845-30.983-57.446-20.909
						c-9.652,4.501-17.273,12.372-21.462,22.162c-0.787,1.842-2.832,2.795-4.751,2.216
						C554.396,193.464,550.177,192.848,545.971,192.848z"/>
				</g>
			</g>
		</g>
		<g>
			<g>
				<g>
					<g>
						<path class="st14" d="M517.508,251.735c-0.888,0-1.739-0.505-2.139-1.363c-0.007-0.015-0.076-0.16-0.083-0.175
							c-7.746-16.84-0.379-36.915,16.423-44.749c7.541-3.518,16.083-4.129,24.054-1.717c1.246,0.377,1.951,1.693,1.573,2.94
							c-0.377,1.246-1.691,1.952-2.94,1.573c-6.856-2.072-14.205-1.548-20.694,1.477c-14.458,6.741-20.797,24.014-14.132,38.505
							l0.074,0.155c0.55,1.18,0.038,2.583-1.142,3.133C518.18,251.664,517.841,251.735,517.508,251.735z"/>
					</g>
				</g>
			</g>
		</g>
		<g>
			<g>
				<g>
					<path class="st6" d="M608.838,326.84c-1.36,0-2.723-0.239-4.039-0.718c-2.959-1.077-5.322-3.242-6.652-6.096
						c-2.748-5.892-0.19-12.92,5.702-15.667l14.246-6.643c5.891-2.747,12.921-0.19,15.668,5.702
						c1.331,2.854,1.471,6.055,0.394,9.015c-1.077,2.959-3.242,5.321-6.096,6.652l0,0l-14.247,6.643
						C612.228,326.468,610.536,326.84,608.838,326.84z M623.071,304.472c-0.556,0-1.119,0.118-1.655,0.368l-14.246,6.643
						c-1.964,0.916-2.817,3.259-1.901,5.222c0.444,0.952,1.231,1.673,2.217,2.032c0.989,0.358,2.055,0.312,3.005-0.131l14.247-6.643
						c1.964-0.916,2.817-3.259,1.901-5.222C625.973,305.313,624.552,304.472,623.071,304.472z M626.399,315.524h0.015H626.399z"/>
				</g>
			</g>
		</g>
		<g>
			<g>
				<g>
					<path class="st6" d="M638.262,399.126c-0.888,0-1.738-0.504-2.138-1.362c-8.5-18.23-9.117-29.207-9.712-39.823
						c-0.596-10.639-1.16-20.688-9.278-38.096c-0.55-1.18-0.04-2.583,1.141-3.133c1.18-0.55,2.583-0.039,3.133,1.141
						c8.501,18.23,9.117,29.208,9.713,39.825c0.596,10.639,1.161,20.687,9.277,38.095c0.55,1.18,0.04,2.583-1.141,3.133
						C638.935,399.054,638.596,399.126,638.262,399.126z"/>
				</g>
			</g>
		</g>
	</g>
	<g>
		<path class="st4" d="M806.167,195.023l3.805,13.039c0.247,0.846,0.894,1.516,1.731,1.792l12.898,4.258
			c2.107,0.696,2.502,3.506,0.668,4.755l-11.225,7.648c-0.728,0.496-1.166,1.319-1.17,2.2l-0.063,13.582
			c-0.01,2.219-2.561,3.463-4.316,2.105l-10.742-8.312c-0.697-0.539-1.615-0.701-2.454-0.433l-12.937,4.137
			c-2.114,0.676-4.085-1.365-3.336-3.454l4.586-12.785c0.298-0.829,0.168-1.752-0.347-2.468l-7.932-11.026
			c-1.296-1.801,0.036-4.307,2.254-4.24l13.576,0.411c0.881,0.027,1.718-0.382,2.24-1.092l8.035-10.951
			C802.751,192.4,805.545,192.893,806.167,195.023z"/>
		<path class="st5" d="M824.601,214.112l-12.898-4.258c-0.268-0.089-0.507-0.23-0.729-0.392l-31.424,29.558
			c0.66,0.74,1.715,1.124,2.812,0.774l12.937-4.137c0.839-0.268,1.757-0.107,2.454,0.433l10.742,8.312
			c1.755,1.358,4.306,0.114,4.316-2.105l0.064-13.582c0.004-0.881,0.442-1.704,1.17-2.2l11.225-7.648
			C827.103,217.617,826.708,214.807,824.601,214.112z"/>
		<path class="st12" d="M806.167,195.023l3.805,13.039c0.247,0.846,0.894,1.516,1.731,1.792l12.898,4.258
			c2.107,0.696,2.502,3.506,0.668,4.755l-11.225,7.648c-0.728,0.496-1.166,1.319-1.17,2.2l-0.063,13.582
			c-0.01,2.219-2.561,3.463-4.316,2.105l-10.742-8.312c-0.697-0.539-1.615-0.701-2.454-0.433l-12.937,4.137
			c-2.114,0.676-4.085-1.365-3.336-3.454l4.586-12.785c0.298-0.829,0.168-1.752-0.347-2.468l-7.932-11.026
			c-1.296-1.801,0.036-4.307,2.254-4.24l13.576,0.411c0.881,0.027,1.718-0.382,2.24-1.092l8.035-10.951
			C802.751,192.4,805.545,192.893,806.167,195.023z"/>
	</g>
	<line class="st15" x1="773.751" y1="491.6" x2="794.878" y2="511.75"/>
	<line class="st15" x1="773.751" y1="491.6" x2="794.878" y2="511.75"/>
	<path class="st15" d="M768.986,466.477"/>
	<line class="st15" x1="767.12" y1="468.853" x2="788.248" y2="489.004"/>
	<line class="st15" x1="402.957" y1="582.737" x2="424.085" y2="602.887"/>
	<line class="st15" x1="343.219" y1="377.083" x2="354.028" y2="386.914"/>
	<line class="st15" x1="341.648" y1="361.461" x2="352.456" y2="371.292"/>
	<line class="st15" x1="393.356" y1="574.713" x2="393.161" y2="575.113"/>
	<line class="st15" x1="405.445" y1="569.109" x2="417.455" y2="580.141"/>
	<line class="st15" x1="763.033" y1="482.303" x2="763.033" y2="482.303"/>
</g>
</svg>
