<svg width="12" height="12" viewBox="0 0 12 12" fill="none" xmlns="http://www.w3.org/2000/svg">
<path d="M6.00002 0C9.30855 0 12 2.69152 12 6.00003C12 9.30851 9.30855 12 6.00002 12C2.69152 12 9.53674e-07 9.30851 9.53674e-07 6.00003C9.53674e-07 2.69152 2.69152 0 6.00002 0ZM6.00002 11.6129C9.09488 11.6129 11.6129 9.0949 11.6129 6C11.6129 2.9051 9.09488 0.387082 6.00002 0.387082C2.90512 0.387082 0.387081 2.90513 0.387081 6.00003C0.387081 9.09494 2.90512 11.6129 6.00002 11.6129Z" fill="#930000"/>
<path d="M5.80645 3.67743H6.19353V5.80645H8.32257V6.19356H6.19353V8.32258H5.80645V6.19356H3.6774V5.80645H5.80645V3.67743Z" fill="#930000"/>
</svg>
